<svg width="274" height="176" viewBox="0 0 274 176" fill="none" xmlns="http://www.w3.org/2000/svg">
<path d="M115.004 49.7111L114.167 57.2231L112.39 57.3183L113.068 51.2587L110.301 51.407L109.623 57.4666L107.847 57.5619L108.684 50.0499L115.004 49.7111Z" fill="#CCCCCC"/>
<path d="M123.007 53.1323C122.914 53.9418 122.684 54.6335 122.316 55.2075C121.95 55.7789 121.49 56.2216 120.937 56.5356C120.387 56.8495 119.787 57.0239 119.136 57.0587C118.449 57.0955 117.847 56.9747 117.328 56.6963C116.809 56.4178 116.42 55.9927 116.16 55.4208C115.903 54.8488 115.821 54.1422 115.915 53.301C116.003 52.4918 116.23 51.799 116.595 51.2228C116.964 50.6464 117.425 50.1999 117.98 49.8834C118.537 49.5642 119.144 49.3871 119.799 49.352C120.481 49.3154 121.08 49.4376 121.597 49.7186C122.116 49.9995 122.504 50.4272 122.761 51.0016C123.019 51.576 123.101 52.2863 123.007 53.1323ZM121.194 53.018C121.244 52.5462 121.223 52.1524 121.13 51.8365C121.04 51.5204 120.884 51.287 120.662 51.136C120.439 50.9827 120.157 50.9152 119.815 50.9335C119.436 50.9538 119.099 51.0655 118.803 51.2685C118.51 51.4689 118.27 51.7516 118.086 52.1164C117.901 52.4787 117.782 52.9117 117.728 53.4153C117.671 53.8923 117.69 54.2863 117.785 54.5972C117.882 54.908 118.044 55.1375 118.271 55.2858C118.498 55.4316 118.78 55.4955 119.117 55.4774C119.493 55.4572 119.827 55.3482 120.118 55.1503C120.409 54.9524 120.646 54.6735 120.829 54.3137C121.014 53.9537 121.136 53.5219 121.194 53.018Z" fill="#CCCCCC"/>
<path d="M128.207 56.4704L126.213 53.4781L125.802 53.5002L125.455 56.6179L123.653 56.7145L124.49 49.2026L126.292 49.106L125.967 52.022L126.255 52.0066L128.888 48.9668L131.142 48.846L127.879 52.5466L130.453 56.3499L128.207 56.4704Z" fill="#CCCCCC"/>
<path d="M131.112 56.3147L131.949 48.8027L137.148 48.524L136.979 49.9988L133.582 50.1809L133.417 51.7211L136.548 51.5532L136.379 53.0316L133.248 53.1995L133.083 54.7433L136.479 54.5612L136.31 56.0359L131.112 56.3147Z" fill="#CCCCCC"/>
<path d="M137.439 55.9754L138.277 48.4635L141.357 48.2984C141.915 48.2684 142.385 48.3514 142.768 48.5472C143.151 48.743 143.431 49.0306 143.607 49.4101C143.783 49.7895 143.843 50.2373 143.785 50.7532C143.73 51.2739 143.569 51.7334 143.301 52.1319C143.035 52.5302 142.682 52.8468 142.242 53.0819C141.802 53.317 141.294 53.4499 140.719 53.4808L138.822 53.5824L138.982 52.1519L140.548 52.068C140.822 52.0533 141.056 51.9933 141.25 51.8881C141.447 51.7828 141.601 51.6421 141.713 51.4659C141.825 51.2897 141.895 51.0855 141.921 50.8531C141.945 50.6209 141.92 50.423 141.845 50.2593C141.771 50.0931 141.646 49.9685 141.471 49.8855C141.299 49.8024 141.078 49.7681 140.808 49.7825L139.92 49.8302L139.241 55.8788L137.439 55.9754Z" fill="#CCCCCC"/>
<path d="M144.117 55.6174L144.955 48.1055L146.757 48.0089L146.422 51.0238L149.36 50.8663L149.695 47.8514L151.493 47.755L150.656 55.2669L148.857 55.3633L149.191 52.3447L146.253 52.5022L145.919 55.5208L144.117 55.6174Z" fill="#CCCCCC"/>
<path d="M153.46 50.2819L155.12 50.1929C155.73 50.1603 156.247 50.231 156.673 50.4051C157.101 50.579 157.418 50.8391 157.624 51.1854C157.832 51.5315 157.908 51.9479 157.851 52.4347C157.797 52.9213 157.626 53.3558 157.337 53.7383C157.049 54.1208 156.667 54.4281 156.193 54.6602C155.721 54.8921 155.18 55.0243 154.571 55.057L151.786 55.2063L152.624 47.6944L154.426 47.5977L153.745 53.6721L154.731 53.6192C154.996 53.605 155.223 53.5479 155.412 53.4478C155.604 53.3451 155.755 53.2131 155.866 53.0516C155.978 52.8875 156.044 52.709 156.063 52.516C156.097 52.2371 156.02 52.0103 155.833 51.8356C155.646 51.6584 155.354 51.5805 154.959 51.6017L153.299 51.6907L153.46 50.2819ZM160.808 47.2556L159.97 54.7676L158.172 54.864L159.009 47.352L160.808 47.2556Z" fill="#CCCCCC"/>
<path d="M161.935 47.1952L163.733 47.0988L163.25 51.427L163.312 51.4237L166.73 46.9382L168.281 46.855L167.443 54.367L165.641 54.4636L166.123 50.1281L166.076 50.1306L162.623 54.6254L161.097 54.7072L161.935 47.1952ZM166.026 44.9924L167.202 44.9294C167.149 45.3892 166.936 45.7677 166.562 46.0648C166.191 46.3618 165.716 46.5258 165.135 46.5569C164.553 46.5882 164.106 46.4736 163.795 46.2131C163.484 45.9527 163.354 45.5926 163.405 45.133L164.57 45.0705C164.552 45.2319 164.591 45.3756 164.688 45.5017C164.785 45.6278 164.966 45.6837 165.23 45.6695C165.492 45.6555 165.685 45.5807 165.81 45.4452C165.934 45.3097 166.006 45.1588 166.026 44.9924Z" fill="#CCCCCC"/>
<path d="M133.518 136.789L131.524 133.796L131.112 133.819L130.765 136.936L128.963 137.033L129.801 129.521L131.603 129.424L131.277 132.34L131.565 132.325L134.199 129.285L136.452 129.164L133.19 132.865L135.764 136.668L133.518 136.789Z" fill="#CCCCCC"/>
<path d="M136.098 136.65L136.259 135.227L136.465 135.194C136.73 135.148 136.955 135.031 137.14 134.841C137.327 134.648 137.485 134.351 137.614 133.948C137.745 133.542 137.86 132.997 137.957 132.314L138.443 129.058L143.674 128.777L142.837 136.289L141.093 136.383L141.774 130.301L139.946 130.399L139.547 132.892C139.413 133.753 139.229 134.452 138.995 134.989C138.764 135.524 138.451 135.923 138.059 136.184C137.667 136.446 137.163 136.593 136.549 136.626L136.098 136.65Z" fill="#CCCCCC"/>
<path d="M144.895 136.281L145.058 134.843L145.444 134.822C145.651 134.811 145.818 134.781 145.947 134.733C146.076 134.683 146.18 134.608 146.26 134.509C146.342 134.409 146.418 134.279 146.487 134.117L146.599 133.882L144.431 128.737L146.28 128.637L147.567 131.923L149.266 128.477L151.09 128.38L147.864 134.47C147.698 134.771 147.51 135.053 147.3 135.317C147.09 135.579 146.839 135.794 146.546 135.963C146.253 136.131 145.898 136.227 145.481 136.249L144.895 136.281Z" fill="#CCCCCC"/>
<path d="M151.009 135.851L151.847 128.339L156.94 128.066L156.771 129.541L153.48 129.717L153.346 130.891L154.343 130.838C154.95 130.805 155.466 130.876 155.892 131.05C156.32 131.224 156.637 131.484 156.843 131.83C157.052 132.176 157.129 132.593 157.075 133.079C157.02 133.566 156.849 134 156.56 134.383C156.272 134.765 155.89 135.073 155.416 135.305C154.942 135.537 154.401 135.669 153.794 135.702L151.009 135.851ZM152.968 134.317L153.954 134.264C154.217 134.25 154.443 134.193 154.635 134.092C154.827 133.99 154.978 133.858 155.089 133.696C155.202 133.532 155.267 133.354 155.286 133.161C155.32 132.882 155.242 132.655 155.052 132.48C154.865 132.303 154.575 132.225 154.182 132.246L153.195 132.299L152.968 134.317Z" fill="#CCCCCC"/>
<path d="M111.226 113.845L118.926 66L127.696 65.3592L124.701 86.0777L136.893 85.4369L140.315 64.0777H149.513L141.813 112.136H132.829L135.824 92.2719L123.418 92.9126L120.423 113.204L111.226 113.845Z" fill="#CBCBC3"/>
<path d="M65.2381 116.835L70.7994 80.0971L80.2108 79.6699L75.9329 108.718H83.847L82.9914 116.194L65.2381 116.835Z" fill="#CBCBC3"/>
<path d="M87.0554 115.34L92.6167 78.6019L102.028 78.1748L97.7502 107.223H105.664L104.809 114.699L87.0554 115.34Z" fill="#CBCBC3"/>
<path d="M30.8009 111.282L35.0788 82.233H43.6347L39.7845 108.932C38.7151 115.34 47.6987 113.204 48.3404 109.359L52.6183 81.3786L61.6019 81.1651L56.2545 118.117H47.057V116.621C39.7845 124.097 29.7315 118.117 30.8009 111.282Z" fill="#CBCBC3"/>
<path d="M185.098 101.029L189.376 71.9806H197.932L194.082 98.6796C193.012 105.087 201.996 102.951 202.638 99.1068L206.916 71.1262L215.899 70.9126L210.552 107.864H201.354V106.369C194.082 113.845 184.029 107.864 185.098 101.029Z" fill="#CBCBC3"/>
<path d="M244.055 79.6698H235.927C236.141 71.9806 228.44 74.1163 228.654 79.6698C228.868 85.2233 244.055 85.0097 241.488 97.8253C238.921 110.641 217.959 110.214 216.89 102.951V97.3979L225.232 96.9709C225.232 96.9709 225.275 101.243 225.446 101.243C230.151 104.874 233.146 100.175 232.932 96.7573C232.665 92.4854 220.098 91.8448 219.884 82.0194C219.545 66.4075 244.482 64.932 244.055 75.398V79.6698Z" fill="#CBCBC3"/>
<path fill-rule="evenodd" clip-rule="evenodd" d="M153.791 84.5825C154.432 78.8155 162.218 72.0233 167.694 72.1942H173.255C176.678 72.1942 182.453 76.0388 181.383 82.233L179.244 98.0388C178.389 103.806 171.758 110.854 166.197 110.854H159.566C156.999 110.854 150.796 108.291 151.652 102.524L153.791 84.5825ZM172.186 83.0874C172.611 74.815 164.272 77.7476 163.416 82.8738L160.849 98.0388C159.138 109.146 168.763 106.583 170.261 98.6796C170.261 98.6796 172.043 85.8641 172.186 83.0874Z" fill="#CBCBC3"/>
<path d="M1.49727 121.32L8.55582 72.835L31.0148 71.767L30.1592 80.3107L17.3255 80.5243L15.8283 93.3398L28.0203 92.9126L27.1647 99.7476L14.7588 99.9612L11.5504 121.32H1.49727Z" fill="#CBCBC3"/>
<path d="M245.766 104.874L251.327 68.3495L272.075 67.2816L271.219 74.3301L259.241 75.1845L258.172 82.6602L269.722 82.233L269.08 88.8544L257.102 89.2816L256.033 96.7573L267.797 96.3301L266.941 103.592L245.766 104.874Z" fill="#CBCBC3"/>
<path d="M0.427791 128.155L0 131.786L265.23 114.485L265.658 110.641L0.427791 128.155Z" fill="#CBCBC3"/>
<path d="M156.999 63.4369L156.785 66.6408L273.358 59.1651L274 55.534L156.999 63.4369Z" fill="#CBCBC3"/>
<path d="M36.5761 71.3398V74.9709L111.653 70.0583L112.081 66.4272L36.5761 71.3398Z" fill="#CBCBC3"/>
<path d="M203.572 122.088C203.184 123.086 203.595 124.218 204.535 124.734L217.806 132.018C213.55 139.318 208.271 145.949 202.167 151.718L192.185 140.418C191.47 139.609 190.263 139.459 189.372 140.069L173.426 150.986C172.541 151.592 172.242 152.758 172.727 153.713L179.586 167.226C172.046 170.829 163.913 173.392 155.374 174.73L153.535 159.734C153.404 158.663 152.493 157.858 151.412 157.858H132.078C131.006 157.858 130.099 158.651 129.958 159.713L127.96 174.751C119.296 173.407 111.05 170.804 103.415 167.133L110.46 153.721C110.962 152.765 110.671 151.585 109.782 150.972L93.8792 139.993C92.9969 139.384 91.7992 139.521 91.0785 140.315L80.8616 151.56C74.5962 145.607 69.2071 138.743 64.9076 131.179L66.2269 130.492L91.0835 128.887C103.005 143.557 121.205 152.932 141.599 152.932C165.006 152.932 185.524 140.581 196.975 122.049L203.757 121.611L203.572 122.088Z" fill="#D9D9D9"/>
<path d="M203.572 122.088C203.184 123.086 203.595 124.218 204.535 124.734L217.806 132.018C213.55 139.318 208.271 145.949 202.167 151.718L192.185 140.418C191.47 139.609 190.263 139.459 189.372 140.069L173.426 150.986C172.541 151.592 172.242 152.758 172.727 153.713L179.586 167.226C172.046 170.829 163.913 173.392 155.374 174.73L153.535 159.734C153.404 158.663 152.493 157.858 151.412 157.858H132.078C131.006 157.858 130.099 158.651 129.958 159.713L127.96 174.751C119.296 173.407 111.05 170.804 103.415 167.133L110.46 153.721C110.962 152.765 110.671 151.585 109.782 150.972L93.8792 139.993C92.9969 139.384 91.7992 139.521 91.0785 140.315L80.8616 151.56C74.5962 145.607 69.2071 138.743 64.9076 131.179L66.2269 130.492L91.0835 128.887C103.005 143.557 121.205 152.932 141.599 152.932C165.006 152.932 185.524 140.581 196.975 122.049L203.757 121.611L203.572 122.088Z" fill="#E8A338"/>
<path d="M129.76 15.8651C129.891 16.9363 130.802 17.7415 131.883 17.7415H151.217C152.29 17.7415 153.196 16.9481 153.338 15.8863L155.333 0.862712C163.991 2.2157 172.231 4.82688 179.86 8.50406L172.835 21.8786C172.333 22.8344 172.624 24.014 173.513 24.6278L189.416 35.6069C190.298 36.216 191.496 36.0781 192.217 35.2849L202.388 24.0884C208.642 30.0404 214.021 36.9013 218.312 44.4589L204.925 51.4286C203.966 51.9275 203.531 53.0621 203.911 54.0726L205.091 57.2144L199.071 57.6032C188.153 37.0598 166.512 23.068 141.599 23.068C113.703 23.068 89.9112 40.6095 80.6791 65.2487L75.0117 65.6145L79.7228 53.5115C80.1114 52.5132 79.6994 51.3818 78.7595 50.8658L65.414 43.5403C69.6787 36.2358 74.9679 29.6013 81.0831 23.8306L91.1098 35.1814C91.8248 35.9908 93.0321 36.1404 93.9235 35.5302L109.87 24.6136C110.754 24.0079 111.053 22.8415 110.568 21.8861L103.69 8.3351C111.236 4.73908 119.375 2.18418 127.919 0.854369L129.76 15.8651Z" fill="url(#paint0_linear_272_20219)"/>
<path d="M153.124 175.288C149.437 175.758 145.68 176 141.866 176C138.098 176 134.386 175.763 130.742 175.305L130.772 175.088L131.08 172.764C134.613 173.208 138.213 173.437 141.866 173.437C145.574 173.437 149.228 173.201 152.812 172.744L153.124 175.288Z" fill="#CBCBCC"/>
<path d="M200.51 153.414L200.644 153.565C195.095 158.529 188.913 162.802 182.233 166.245L181.071 163.957C187.557 160.613 193.559 156.464 198.946 151.643L200.51 153.414Z" fill="#CBCBCC"/>
<path d="M190.999 122.435C180.048 137.89 161.999 147.971 141.598 147.947C124.052 147.926 108.263 140.434 97.2439 128.49L101.06 128.243C111.464 138.73 125.851 145.228 141.754 145.246C160.361 145.268 176.917 136.415 187.453 122.664L190.999 122.435Z" fill="#CBCBCC"/>
<path d="M223.859 120.313C222.564 123.586 221.079 126.763 219.417 129.831L219.31 129.772L217.167 128.595C218.586 125.975 219.872 123.272 221.017 120.496L223.859 120.313Z" fill="#CBCBCC"/>
<path d="M141.741 27.3398C164.243 27.3665 183.855 39.6799 194.222 57.9164L191.424 58.0971C181.427 41.0716 162.992 29.64 141.891 29.6151C118.109 29.587 97.6797 44.0555 88.8848 64.7189L85.7136 64.9233C94.7084 42.8552 116.413 27.3098 141.741 27.3398Z" fill="#CBCBCC"/>
<path d="M219.729 46.7504C221.317 49.7338 222.738 52.8194 223.98 55.9945L221.287 56.1685C220.151 53.3469 218.87 50.5994 217.452 47.936L219.729 46.7504Z" fill="#CBCBCC"/>
<path d="M66.7558 47.055C63.4053 53.1708 60.7816 59.7404 59.0017 66.6483L57.1184 66.7701L56.3748 66.5815L56.3702 66.5803C58.2053 59.2529 60.9605 52.2897 64.5057 45.8197L66.7558 47.055Z" fill="#CBCBCC"/>
<path d="M102.898 11.9182C96.4226 15.2322 90.4258 19.3468 85.038 24.1305L83.3398 22.2082C88.8898 17.2815 95.0673 13.0444 101.738 9.63168L102.898 11.9182Z" fill="#CBCBCC"/>
<path d="M141.866 0C145.648 0 149.375 0.237864 153.032 0.699598L152.695 3.2406C149.148 2.79333 145.534 2.56311 141.866 2.56311C138.208 2.56311 134.603 2.79224 131.065 3.23726L130.753 0.69334C134.393 0.235954 138.102 0 141.866 0Z" fill="#CBCBCC"/>
<path d="M182.34 9.80939C188.99 13.2489 195.144 17.5107 200.67 22.4581L198.946 24.3566C193.58 19.5544 187.603 15.419 181.146 12.0809L182.34 9.80939Z" fill="#CBCBCC"/>
<path d="M102.496 163.872L101.409 165.942L101.303 166.144C94.6278 162.682 88.4534 158.391 82.9141 153.409L83.0298 153.282L84.6387 151.511C90.05 156.777 96.2529 160.835 102.496 163.872Z" fill="#CBCBCC"/>
<defs>
<linearGradient id="paint0_linear_272_20219" x1="137" y1="0" x2="137" y2="176" gradientUnits="userSpaceOnUse">
<stop stop-color="#ECB157"/>
<stop offset="1" stop-color="#E79E2D"/>
</linearGradient>
</defs>
</svg>
