<svg width="50" height="76" viewBox="0 0 50 76" fill="none" xmlns="http://www.w3.org/2000/svg">
<rect width="50" height="76" rx="4" fill="#205D90"/>
<path fill-rule="evenodd" clip-rule="evenodd" d="M45.4211 7.5H4.57895V10H45.4211V7.5ZM45.4211 12H4.57895V14.5H45.4211V12ZM45.4211 16.5H4.57895V19L45.4211 18.6552V20.6552L4.57895 21V23.5H45.4211V25.5H4.57895V28H45.4211V30H4.57895V32.5H45.4211V34.5H4.57895V37H45.4211V39H4.57895V41.5H45.4211V43.5H4.57895V46H45.4211V48H4.57895V50.5H45.4211V52.5H4.57895V55H45.4211V57H4.57895V59.5H45.4211V61.5H4.57895V64H45.4211V66H4.57895V68.5L45.4343 68.494L45.4211 16.5ZM4 0C1.79087 0 0 1.79086 0 4V72C0 74.2091 1.79086 76 4 76H46C48.2092 76 50 74.2091 50 72V4C50 1.79086 48.2092 0 46 0C46 0 6.20914 0 4 0Z" fill="url(#paint0_linear_43_424)"/>
<defs>
<linearGradient id="paint0_linear_43_424" x1="25" y1="0" x2="25" y2="76" gradientUnits="userSpaceOnUse">
<stop stop-color="#D6D6D6"/>
<stop offset="1" stop-color="#E8E8E8"/>
</linearGradient>
</defs>
</svg>
