<svg width="225" height="225" viewBox="0 0 225 225" fill="none" xmlns="http://www.w3.org/2000/svg">
<g filter="url(#filter0_d_273_24119)">
<path d="M112.5 200.5C161.101 200.5 200.5 161.101 200.5 112.5C200.5 63.8989 161.101 24.5 112.5 24.5C63.8989 24.5 24.5 63.8989 24.5 112.5C24.5 161.101 63.8989 200.5 112.5 200.5Z" fill="url(#paint0_linear_273_24119)"/>
<mask id="mask0_273_24119" style="mask-type:luminance" maskUnits="userSpaceOnUse" x="27" y="24" width="170" height="176">
<path d="M89.6405 29.0891C89.6405 28.1713 89.6405 27.2535 90.5623 27.2535C104.389 23.5822 119.137 23.5822 132.964 27.2535C133.886 27.2535 133.886 28.1713 133.886 29.0891L131.12 40.1029C131.12 41.0207 130.198 41.0207 129.277 41.0207C117.294 38.2673 105.311 38.2673 94.2493 41.0207C93.3276 41.0207 92.4058 41.0207 92.4058 40.1029L89.6405 29.0891ZM28.8036 89.665L39.8648 92.4185C40.7866 92.4185 41.7084 92.4185 41.7084 91.5007C44.4737 80.4869 50.0043 70.3909 59.222 61.2127C60.1438 60.2949 60.1438 59.3771 59.222 59.3771L50.9261 51.1167C50.0043 50.1989 49.0826 50.1989 49.0826 51.1167C38.9431 62.1305 31.5689 74.0621 27.8818 87.8294C26.96 88.7472 27.8818 89.665 28.8036 89.665ZM182.739 91.5007C182.739 92.4185 183.661 92.4185 184.583 92.4185L195.644 89.665C196.566 89.665 196.566 88.7472 196.566 87.8294C192.879 74.0621 185.505 62.1305 175.365 51.1167C174.443 50.1989 173.522 50.1989 173.522 51.1167L165.226 59.3771C164.304 60.2949 164.304 61.2127 165.226 61.2127C173.522 70.3909 179.052 80.4869 182.739 91.5007ZM131.12 184.2C131.12 183.282 130.198 183.282 129.277 183.282C117.294 186.036 105.311 186.036 94.2493 183.282C93.3276 183.282 92.4058 183.282 92.4058 184.2L89.6405 195.214C89.6405 196.132 89.6405 197.05 90.5623 197.05C104.389 200.721 119.137 200.721 132.964 197.05C133.886 197.05 133.886 196.132 133.886 195.214L131.12 184.2ZM195.644 133.72L184.583 130.967C183.661 130.967 183.083 130.943 182.739 131.885C179.974 142.898 173.522 152.994 165.226 162.173C164.304 163.09 164.343 163.237 165.226 164.008L173.522 172.269C174.443 173.186 174.935 172.736 175.365 172.269C185.505 161.255 192.879 149.323 196.566 135.556C196.566 135.556 196.935 134.173 195.644 133.72ZM41.7084 131.885C41.7084 130.967 40.7866 130.967 39.8648 130.967L28.8036 133.72C27.8818 133.72 27.8818 134.638 27.8818 135.556C31.5689 149.323 38.9431 161.255 49.0826 172.269C50.0043 173.186 50.9261 173.186 50.9261 172.269L59.222 164.008C60.1438 163.09 60.1438 162.173 59.222 162.173C50.0043 153.912 44.4737 143.816 41.7084 131.885Z" fill="white"/>
</mask>
<g mask="url(#mask0_273_24119)">
<path d="M49.0823 51.1158C82.266 16.2387 137.572 15.3209 172.6 49.2801C207.627 82.3216 208.549 138.308 175.365 173.186C142.181 208.063 85.9531 208.98 50.9258 175.939C15.8985 141.062 14.9767 85.9928 49.0823 51.1158Z" fill="url(#paint1_linear_273_24119)"/>
</g>
<path d="M112.068 180.655C150.249 180.655 181.201 149.836 181.201 111.819C181.201 73.8015 150.249 42.9824 112.068 42.9824C73.887 42.9824 42.9352 73.8015 42.9352 111.819C42.9352 149.836 73.887 180.655 112.068 180.655Z" fill="url(#paint2_linear_273_24119)"/>
<path d="M112.5 35.5C155.405 35.5 189.5 69.5951 189.5 112.5C189.5 155.405 155.405 189.5 112.5 189.5C69.5951 189.5 35.5 155.405 35.5 112.5C35.5 69.5951 69.5951 35.5 112.5 35.5Z" fill="url(#paint3_linear_273_24119)" stroke="#9AE658" stroke-width="2"/>
</g>
<defs>
<filter id="filter0_d_273_24119" x="0" y="0" width="225" height="225" filterUnits="userSpaceOnUse" color-interpolation-filters="sRGB">
<feFlood flood-opacity="0" result="BackgroundImageFix"/>
<feColorMatrix in="SourceAlpha" type="matrix" values="0 0 0 0 0 0 0 0 0 0 0 0 0 0 0 0 0 0 127 0" result="hardAlpha"/>
<feOffset/>
<feGaussianBlur stdDeviation="12.25"/>
<feComposite in2="hardAlpha" operator="out"/>
<feColorMatrix type="matrix" values="0 0 0 0 0 0 0 0 0 0 0 0 0 0 0 0 0 0 1 0"/>
<feBlend mode="normal" in2="BackgroundImageFix" result="effect1_dropShadow_273_24119"/>
<feBlend mode="normal" in="SourceGraphic" in2="effect1_dropShadow_273_24119" result="shape"/>
</filter>
<linearGradient id="paint0_linear_273_24119" x1="112.71" y1="24.6925" x2="112.71" y2="201.465" gradientUnits="userSpaceOnUse">
<stop stop-color="#2B2934"/>
<stop offset="1" stop-color="#141318"/>
</linearGradient>
<linearGradient id="paint1_linear_273_24119" x1="111.824" y1="24.374" x2="111.824" y2="200.05" gradientUnits="userSpaceOnUse">
<stop stop-color="#EDB258"/>
<stop offset="1" stop-color="#E69D2B"/>
</linearGradient>
<linearGradient id="paint2_linear_273_24119" x1="112.068" y1="42.9824" x2="112.068" y2="180.655" gradientUnits="userSpaceOnUse">
<stop stop-color="#EDB258"/>
<stop offset="1" stop-color="#E69D2B"/>
</linearGradient>
<linearGradient id="paint3_linear_273_24119" x1="112.686" y1="34.6706" x2="112.686" y2="191.356" gradientUnits="userSpaceOnUse">
<stop stop-color="#2B2934"/>
<stop offset="1" stop-color="#141318"/>
</linearGradient>
</defs>
</svg>
