<svg width="80" height="80" viewBox="0 0 80 80" fill="none" xmlns="http://www.w3.org/2000/svg">
<path d="M59.9802 62C59.9802 62 60.5667 61.2267 60.78 60.9867C60.9932 60.7467 61.6063 60 61.6063 60C61.6063 60 60.9666 59.28 60.78 59.0133C60.5667 58.7733 59.9802 58 59.9802 58C59.9802 58 59.3938 58.7733 59.1805 59.0133C58.9672 59.2533 58.3541 60 58.3541 60C58.3541 60 58.9939 60.72 59.1805 60.9867C59.3938 61.2267 59.9802 62 59.9802 62Z" fill="#383844"/>
<path d="M54.9954 73.0137C54.9954 73.0137 54.4089 73.787 54.1957 74.027C53.9824 74.267 53.3693 75.0137 53.3693 75.0137C53.3693 75.0137 54.0091 75.7337 54.1957 76.0003C54.4089 76.2403 54.9954 77.0137 54.9954 77.0137C54.9954 77.0137 55.5819 76.2403 55.7952 76.0003C56.0084 75.7603 56.6215 75.0137 56.6215 75.0137C56.6215 75.0137 55.9818 74.2937 55.7952 74.027C55.5819 73.787 54.9954 73.0137 54.9954 73.0137Z" fill="#383844"/>
<path d="M49.9838 52.001C49.9838 52.001 50.5703 51.2276 50.7836 50.9876C50.9968 50.7476 51.6099 50.001 51.6099 50.001C51.6099 50.001 50.9702 49.281 50.7836 49.0143C50.5703 48.7743 49.9838 48.001 49.9838 48.001C49.9838 48.001 49.3974 48.7743 49.1841 49.0143C48.9708 49.2543 48.3577 50.001 48.3577 50.001C48.3577 50.001 48.9975 50.721 49.1841 50.9876C49.3974 51.2276 49.9838 52.001 49.9838 52.001Z" fill="#383844"/>
<path d="M44.9986 63.0127C44.9986 63.0127 44.4121 63.786 44.1989 64.026C43.9856 64.266 43.3725 65.0127 43.3725 65.0127C43.3725 65.0127 44.0123 65.7327 44.1989 65.9994C44.4121 66.2394 44.9986 67.0127 44.9986 67.0127C44.9986 67.0127 45.5851 66.2394 45.7983 65.9994C46.0116 65.7594 46.6247 65.0127 46.6247 65.0127C46.6247 65.0127 45.9849 64.2927 45.7983 64.026C45.5851 63.786 44.9986 63.0127 44.9986 63.0127Z" fill="#383844"/>
<path d="M78.3937 80.0014H80.0009V78.0371C80.0009 78.0371 79.4212 78.7966 79.2105 79.0323C78.9997 79.2942 78.3937 80.0014 78.3937 80.0014Z" fill="#383844"/>
<path d="M39.9877 78.001C39.9877 78.001 39.4012 78.7743 39.1879 79.0143C38.9747 79.2543 38.3615 80.001 38.3615 80.001H39.9877H41.6138C41.6138 80.001 40.974 79.281 40.7874 79.0143C40.5741 78.7743 39.9877 78.001 39.9877 78.001Z" fill="#383844"/>
<path d="M69.9775 68.001C69.9775 68.001 69.3911 68.7743 69.1778 69.0143C68.9645 69.2543 68.3514 70.001 68.3514 70.001C68.3514 70.001 68.9912 70.721 69.1778 70.9876C69.3911 71.2276 69.9775 72.001 69.9775 72.001C69.9775 72.001 70.564 71.2276 70.7773 70.9876C70.9905 70.7476 71.6037 70.001 71.6037 70.001C71.6037 70.001 70.9639 69.281 70.7773 69.0143C70.564 68.7743 69.9775 68.001 69.9775 68.001Z" fill="#383844"/>
<path d="M74.9886 57.0127C74.9886 57.0127 75.575 56.2394 75.7883 55.9994C76.0016 55.7594 76.6147 55.0127 76.6147 55.0127C76.6147 55.0127 75.9749 54.2927 75.7883 54.026C75.575 53.786 74.9886 53.0127 74.9886 53.0127C74.9886 53.0127 74.4021 53.786 74.1888 54.026C73.9756 54.266 73.3625 55.0127 73.3625 55.0127C73.3625 55.0127 74.0022 55.7327 74.1888 55.9994C74.3754 56.2127 74.9886 57.0127 74.9886 57.0127Z" fill="#383844"/>
<path d="M64.9931 47.0137C64.9931 47.0137 65.5796 46.2403 65.7928 46.0003C66.0061 45.7603 66.6192 45.0137 66.6192 45.0137C66.6192 45.0137 65.9794 44.2937 65.7928 44.027C65.5796 43.787 64.9931 43.0137 64.9931 43.0137C64.9931 43.0137 64.4066 43.787 64.1934 44.027C63.9801 44.267 63.367 45.0137 63.367 45.0137C63.367 45.0137 64.0068 45.7337 64.1934 46.0003C64.38 46.2137 64.9931 47.0137 64.9931 47.0137Z" fill="#383844"/>
<path d="M76.6684 73.4663C76.3752 73.1997 75.9753 73.2263 75.8953 73.2263C75.3355 73.2797 75.0156 73.7597 74.989 73.813C74.9623 73.7597 74.6424 73.2797 74.0826 73.2263C74.0026 73.2263 73.6028 73.1997 73.3095 73.4663C72.963 73.7597 73.0163 74.213 73.0163 74.293C73.0163 74.373 73.0696 74.5863 73.3895 74.9863C73.8693 75.573 74.1892 75.6797 74.6424 76.2397C74.829 76.453 74.9356 76.6663 75.0156 76.773C75.0956 76.6397 75.2022 76.453 75.3888 76.2397C75.8154 75.6797 76.1619 75.5997 76.6417 74.9863C76.9883 74.5597 77.015 74.373 77.015 74.293C76.9883 74.213 77.015 73.7597 76.6684 73.4663Z" fill="#383844"/>
<path d="M66.6712 63.4663C66.3779 63.1997 65.978 63.2263 65.8981 63.2263C65.3383 63.2797 65.0184 63.7597 64.9917 63.813C64.9651 63.7597 64.6452 63.2797 64.0853 63.2263C64.0054 63.2263 63.6055 63.1997 63.3123 63.4663C62.9657 63.7597 63.019 64.213 63.019 64.293C63.019 64.373 63.0724 64.5863 63.3922 64.9863C63.8721 65.573 64.192 65.6797 64.6452 66.2397C64.8318 66.453 64.9384 66.6663 65.0184 66.773C65.0983 66.6397 65.205 66.453 65.3916 66.2397C65.8181 65.6797 66.1647 65.5997 66.6445 64.9863C66.991 64.5597 67.0177 64.373 67.0177 64.293C66.991 64.213 67.0177 63.7597 66.6712 63.4663Z" fill="#383844"/>
<path d="M71.6831 48.4546C71.3899 48.1879 70.99 48.2146 70.91 48.2146C70.3502 48.2679 70.0303 48.7479 70.0037 48.8013C69.977 48.7479 69.6571 48.2679 69.0973 48.2146C69.0173 48.2146 68.6175 48.1879 68.3242 48.4546C67.9777 48.7479 68.031 49.2013 68.031 49.2813C68.031 49.3613 68.0843 49.5746 68.4042 49.9746C68.884 50.5613 69.2039 50.6679 69.6571 51.2279C69.8437 51.4413 69.9504 51.6546 70.0303 51.7613C70.1103 51.6279 70.2169 51.4413 70.4035 51.2279C70.8301 50.6679 71.1766 50.5879 71.6565 49.9746C72.003 49.5479 72.0297 49.3613 72.0297 49.2813C71.9764 49.2013 72.0297 48.7746 71.6831 48.4546Z" fill="#383844"/>
<path d="M56.6749 53.4653C56.3816 53.1987 55.9818 53.2254 55.9018 53.2254C55.342 53.2787 55.0221 53.7587 54.9954 53.812C54.9688 53.7587 54.6489 53.2787 54.0891 53.2254C54.0091 53.2254 53.6092 53.1987 53.316 53.4653C52.9694 53.7587 53.0228 54.212 53.0228 54.292C53.0228 54.372 53.0761 54.5853 53.396 54.9853C53.8758 55.572 54.1957 55.6787 54.6489 56.2387C54.8355 56.452 54.9421 56.6653 55.0221 56.772C55.1021 56.6387 55.2087 56.452 55.3953 56.2387C55.8218 55.6787 56.1684 55.5987 56.6482 54.9853C56.9948 54.5587 57.0214 54.372 57.0214 54.292C56.9948 54.212 57.0214 53.7587 56.6749 53.4653Z" fill="#383844"/>
<path d="M61.6861 78.4527C61.3929 78.186 60.993 78.2127 60.913 78.2127C60.3532 78.266 60.0333 78.746 60.0067 78.7993C59.98 78.746 59.6601 78.266 59.1003 78.2127C59.0203 78.2127 58.6205 78.186 58.3272 78.4527C57.9807 78.746 58.034 79.1993 58.034 79.2793C58.034 79.3593 58.0873 79.5727 58.4072 79.9727H61.5795C61.926 79.546 61.9527 79.3593 61.9527 79.2793C61.9793 79.1993 62.0327 78.7727 61.6861 78.4527Z" fill="#383844"/>
<path d="M41.6939 58.4536C41.4006 58.187 41.0008 58.2136 40.9208 58.2136C40.361 58.267 40.0411 58.747 40.0144 58.8003C39.9878 58.747 39.6679 58.267 39.1081 58.2136C39.0281 58.2136 38.6282 58.187 38.335 58.4536C37.9884 58.747 38.0417 59.2003 38.0417 59.2803C38.0417 59.3603 38.0951 59.5736 38.415 59.9736C38.8948 60.5603 39.2147 60.667 39.6679 61.227C39.8545 61.4403 39.9611 61.6536 40.0411 61.7603C40.121 61.627 40.2277 61.4403 40.4143 61.227C40.8408 60.667 41.1874 60.587 41.6672 59.9736C42.0137 59.547 42.0404 59.3603 42.0404 59.2803C41.9871 59.2003 42.0404 58.7736 41.6939 58.4536Z" fill="#383844"/>
<path d="M51.6904 68.4546C51.3971 68.1879 50.9973 68.2146 50.9173 68.2146C50.3575 68.2679 50.0376 68.7479 50.0109 68.8013C49.9843 68.7479 49.6644 68.2679 49.1046 68.2146C49.0246 68.2146 48.6247 68.1879 48.3315 68.4546C47.9849 68.7479 48.0383 69.2013 48.0383 69.2813C48.0383 69.3613 48.0916 69.5746 48.4115 69.9746C48.8913 70.5613 49.2112 70.6679 49.6644 71.2279C49.851 71.4413 49.9576 71.6546 50.0376 71.7613C50.1176 71.6279 50.2242 71.4413 50.4108 71.2279C50.8373 70.6679 51.1839 70.5879 51.6637 69.9746C52.0103 69.5479 52.0369 69.3613 52.0369 69.2813C51.9836 69.2013 52.0369 68.7746 51.6904 68.4546Z" fill="#383844"/>
<path d="M79.0675 58.2127C78.9875 58.2127 78.5876 58.186 78.2944 58.4527C77.9478 58.746 78.0012 59.1993 78.0012 59.2793C78.0012 59.3593 78.0545 59.5727 78.3744 59.9727C78.8542 60.5593 79.1741 60.666 79.6273 61.226C79.8139 61.4393 79.9205 61.6527 80.0005 61.7593V58.7727C79.9472 58.746 79.6273 58.266 79.0675 58.2127Z" fill="#383844"/>
<path d="M46.6785 43.4683C46.3853 43.2016 45.9854 43.2283 45.9055 43.2283C45.3456 43.2816 45.0258 43.7616 44.9991 43.8149C44.9724 43.7616 44.6525 43.2816 44.0927 43.2283C44.0128 43.2283 43.6129 43.2016 43.3197 43.4683C42.9731 43.7616 43.0264 44.2149 43.0264 44.2949C43.0264 44.3749 43.0797 44.5883 43.3996 44.9883C43.8795 45.5749 44.1994 45.6816 44.6525 46.2416C44.8391 46.4549 44.9458 46.6683 45.0258 46.7749C45.1057 46.6416 45.2124 46.4549 45.399 46.2416C45.8255 45.6816 46.172 45.6016 46.6519 44.9883C46.9984 44.5616 47.0251 44.3749 47.0251 44.2949C46.9984 44.2149 47.0251 43.7616 46.6785 43.4683Z" fill="#383844"/>
<path d="M19.9943 62C19.9943 62 20.5808 61.2267 20.7941 60.9867C21.0073 60.7467 21.6204 60 21.6204 60C21.6204 60 20.9807 59.28 20.7941 59.0133C20.5808 58.7733 19.9943 58 19.9943 58C19.9943 58 19.4078 58.7733 19.1946 59.0133C18.9813 59.2533 18.3682 60 18.3682 60C18.3682 60 19.008 60.72 19.1946 60.9867C19.4078 61.2267 19.9943 62 19.9943 62Z" fill="#383844"/>
<path d="M15.0091 73.0137C15.0091 73.0137 14.4226 73.787 14.2094 74.027C13.9961 74.267 13.383 75.0137 13.383 75.0137C13.383 75.0137 14.0228 75.7337 14.2094 76.0003C14.4226 76.2403 15.0091 77.0137 15.0091 77.0137C15.0091 77.0137 15.5956 76.2403 15.8088 76.0003C16.0221 75.7603 16.6352 75.0137 16.6352 75.0137C16.6352 75.0137 15.9954 74.2937 15.8088 74.027C15.5956 73.787 15.0091 73.0137 15.0091 73.0137Z" fill="#383844"/>
<path d="M9.99707 52.001C9.99707 52.001 10.5835 51.2276 10.7968 50.9876C11.0101 50.7476 11.6232 50.001 11.6232 50.001C11.6232 50.001 10.9834 49.281 10.7968 49.0143C10.5835 48.7743 9.99707 48.001 9.99707 48.001C9.99707 48.001 9.41059 48.7743 9.19733 49.0143C8.98407 49.2543 8.37094 50.001 8.37094 50.001C8.37094 50.001 9.01073 50.721 9.19733 50.9876C9.41059 51.2276 9.99707 52.001 9.99707 52.001Z" fill="#383844"/>
<path d="M5.01202 63.0127C5.01202 63.0127 4.42555 63.786 4.21229 64.026C3.99902 64.266 3.38589 65.0127 3.38589 65.0127C3.38589 65.0127 4.02568 65.7327 4.21229 65.9994C4.42555 66.2394 5.01202 67.0127 5.01202 67.0127C5.01202 67.0127 5.59849 66.2394 5.81175 65.9994C6.02502 65.7594 6.63814 65.0127 6.63814 65.0127C6.63814 65.0127 5.99836 64.2927 5.81175 64.026C5.59849 63.786 5.01202 63.0127 5.01202 63.0127Z" fill="#383844"/>
<path d="M39.988 42.002C39.988 42.002 40.5745 41.2286 40.7878 40.9886C41.001 40.7486 41.6142 40.002 41.6142 40.002C41.6142 40.002 40.9744 39.282 40.7878 39.0153C40.5745 38.7753 39.988 38.002 39.988 38.002C39.988 38.002 39.4016 38.7753 39.1883 39.0153C38.975 39.2553 38.3619 40.002 38.3619 40.002C38.3619 40.002 39.0017 40.722 39.1883 40.9886C39.4016 41.2286 39.988 42.002 39.988 42.002Z" fill="#383844"/>
<path d="M1.62652 40C1.62652 40 0.986735 39.28 0.80013 39.0133C0.586868 38.7733 0.000396729 38 0.000396729 38V40V42C0.000396729 42 0.586868 41.2267 0.80013 40.9867C1.01339 40.72 1.62652 40 1.62652 40Z" fill="#383844"/>
<path d="M0 78V80H1.62612C1.62612 80 0.986338 79.28 0.799733 79.0133C0.586471 78.7733 0 78 0 78Z" fill="#383844"/>
<path d="M29.991 68.001C29.991 68.001 29.4046 68.7743 29.1913 69.0143C28.978 69.2543 28.3649 70.001 28.3649 70.001C28.3649 70.001 29.0047 70.721 29.1913 70.9876C29.4046 71.2276 29.991 72.001 29.991 72.001C29.991 72.001 30.5775 71.2276 30.7908 70.9876C31.004 70.7476 31.6171 70.001 31.6171 70.001C31.6171 70.001 30.9774 69.281 30.7908 69.0143C30.5775 68.7743 29.991 68.001 29.991 68.001Z" fill="#383844"/>
<path d="M35.0021 57.0127C35.0021 57.0127 35.5886 56.2394 35.8019 55.9994C36.0151 55.7594 36.6283 55.0127 36.6283 55.0127C36.6283 55.0127 35.9885 54.2927 35.8019 54.026C35.5886 53.786 35.0021 53.0127 35.0021 53.0127C35.0021 53.0127 34.4157 53.786 34.2024 54.026C33.9891 54.266 33.376 55.0127 33.376 55.0127C33.376 55.0127 34.0158 55.7327 34.2024 55.9994C34.389 56.2127 35.0021 57.0127 35.0021 57.0127Z" fill="#383844"/>
<path d="M25.0066 47.0137C25.0066 47.0137 25.5931 46.2403 25.8063 46.0003C26.0196 45.7603 26.6327 45.0137 26.6327 45.0137C26.6327 45.0137 25.9929 44.2937 25.8063 44.027C25.5931 43.787 25.0066 43.0137 25.0066 43.0137C25.0066 43.0137 24.4201 43.787 24.2069 44.027C23.9936 44.267 23.3805 45.0137 23.3805 45.0137C23.3805 45.0137 24.0203 45.7337 24.2069 46.0003C24.3935 46.2137 25.0066 47.0137 25.0066 47.0137Z" fill="#383844"/>
<path d="M36.6818 73.4663C36.3885 73.1997 35.9887 73.2263 35.9087 73.2263C35.3489 73.2797 35.029 73.7597 35.0023 73.813C34.9757 73.7597 34.6558 73.2797 34.096 73.2263C34.016 73.2263 33.6161 73.1997 33.3229 73.4663C32.9763 73.7597 33.0297 74.213 33.0297 74.293C33.0297 74.373 33.083 74.5863 33.4029 74.9863C33.8827 75.573 34.2026 75.6797 34.6558 76.2397C34.8424 76.453 34.949 76.6663 35.029 76.773C35.109 76.6397 35.2156 76.453 35.4022 76.2397C35.8287 75.6797 36.1753 75.5997 36.6551 74.9863C37.0017 74.5597 37.0283 74.373 37.0283 74.293C37.0017 74.213 37.0283 73.7597 36.6818 73.4663Z" fill="#383844"/>
<path d="M26.6845 63.4673C26.3912 63.2006 25.9914 63.2273 25.9114 63.2273C25.3516 63.2806 25.0317 63.7606 25.005 63.814C24.9784 63.7606 24.6585 63.2806 24.0987 63.2273C24.0187 63.2273 23.6188 63.2006 23.3256 63.4673C22.979 63.7606 23.0323 64.214 23.0323 64.294C23.0323 64.374 23.0857 64.5873 23.4055 64.9873C23.8854 65.574 24.2053 65.6806 24.6585 66.2406C24.8451 66.454 24.9517 66.6673 25.0317 66.774C25.1116 66.6406 25.2183 66.454 25.4049 66.2406C25.8314 65.6806 26.178 65.6006 26.6578 64.9873C27.0043 64.5606 27.031 64.374 27.031 64.294C27.0043 64.214 27.031 63.7606 26.6845 63.4673Z" fill="#383844"/>
<path d="M31.6968 48.4546C31.4036 48.1879 31.0037 48.2146 30.9238 48.2146C30.364 48.2679 30.0441 48.7479 30.0174 48.8013C29.9907 48.7479 29.6709 48.2679 29.111 48.2146C29.0311 48.2146 28.6312 48.1879 28.338 48.4546C27.9914 48.7479 28.0447 49.2013 28.0447 49.2813C28.0447 49.3613 28.098 49.5746 28.4179 49.9746C28.8978 50.5613 29.2177 50.6679 29.6709 51.2279C29.8575 51.4413 29.9641 51.6546 30.0441 51.7613C30.124 51.6279 30.2307 51.4413 30.4173 51.2279C30.8438 50.6679 31.1903 50.5879 31.6702 49.9746C32.0167 49.5479 32.0434 49.3613 32.0434 49.2813C31.9901 49.2013 32.0434 48.7746 31.6968 48.4546Z" fill="#383844"/>
<path d="M16.6891 53.4673C16.3959 53.2006 15.996 53.2273 15.916 53.2273C15.3562 53.2806 15.0363 53.7606 15.0097 53.814C14.983 53.7606 14.6631 53.2806 14.1033 53.2273C14.0233 53.2273 13.6234 53.2006 13.3302 53.4673C12.9837 53.7606 13.037 54.214 13.037 54.294C13.037 54.374 13.0903 54.5873 13.4102 54.9873C13.89 55.574 14.2099 55.6806 14.6631 56.2406C14.8497 56.454 14.9563 56.6673 15.0363 56.774C15.1163 56.6406 15.2229 56.454 15.4095 56.2406C15.836 55.6806 16.1826 55.6006 16.6624 54.9873C17.009 54.5606 17.0356 54.374 17.0356 54.294C17.009 54.214 17.0356 53.7606 16.6891 53.4673Z" fill="#383844"/>
<path d="M21.7008 78.4546C21.4075 78.1879 21.0077 78.2146 20.9277 78.2146C20.3679 78.2679 20.048 78.7479 20.0213 78.8013C19.9947 78.7479 19.6748 78.2679 19.1149 78.2146C19.035 78.2146 18.6351 78.1879 18.3419 78.4546C17.9953 78.7479 18.0486 79.2013 18.0486 79.2813C18.0486 79.3613 18.102 79.5746 18.4218 79.9746H21.5941C21.9407 79.5479 21.9673 79.3613 21.9673 79.2813C21.994 79.2013 22.0473 78.7746 21.7008 78.4546Z" fill="#383844"/>
<path d="M1.7066 58.4536C1.41337 58.187 1.0135 58.2136 0.933525 58.2136C0.373712 58.267 0.0538184 58.747 0.0271606 58.8003V61.787C0.107134 61.6536 0.213765 61.467 0.40037 61.2536C0.826894 60.6936 1.17345 60.6136 1.65329 60.0003C1.99984 59.5736 2.02649 59.387 2.02649 59.307C1.99984 59.2003 2.05315 58.7736 1.7066 58.4536Z" fill="#383844"/>
<path d="M11.704 68.4546C11.4108 68.1879 11.0109 68.2146 10.931 68.2146C10.3712 68.2679 10.0513 68.7479 10.0246 68.8013C9.99795 68.7479 9.67806 68.2679 9.11824 68.2146C9.03827 68.2146 8.6384 68.1879 8.34517 68.4546C7.99862 68.7479 8.05193 69.2013 8.05193 69.2813C8.05193 69.3613 8.10525 69.5746 8.42514 69.9746C8.90498 70.5613 9.22487 70.6679 9.67806 71.2279C9.86466 71.4413 9.97129 71.6546 10.0513 71.7613C10.1312 71.6279 10.2379 71.4413 10.4245 71.2279C10.851 70.6679 11.1976 70.5879 11.6774 69.9746C12.0239 69.5479 12.0506 69.3613 12.0506 69.2813C11.9973 69.2013 12.0506 68.7746 11.704 68.4546Z" fill="#383844"/>
<path d="M6.69184 43.4683C6.39861 43.2016 5.99874 43.2283 5.91877 43.2283C5.35895 43.2816 5.03906 43.7616 5.0124 43.8149C4.98574 43.7616 4.66585 43.2816 4.10604 43.2283C4.02606 43.2283 3.6262 43.2016 3.33296 43.4683C2.98641 43.7616 3.03973 44.2149 3.03973 44.2949C3.03973 44.3749 3.09304 44.5883 3.41293 44.9883C3.89277 45.5749 4.21267 45.6816 4.66585 46.2416C4.85245 46.4549 4.95909 46.6683 5.03906 46.7749C5.11903 46.6416 5.22566 46.4549 5.41227 46.2416C5.83879 45.6816 6.18534 45.6016 6.66518 44.9883C7.01173 44.5616 7.03839 44.3749 7.03839 44.2949C7.01173 44.2149 7.03839 43.7616 6.69184 43.4683Z" fill="#383844"/>
<path d="M59.981 22.001C59.981 22.001 60.5675 21.2276 60.7807 20.9876C60.994 20.7476 61.6071 20.001 61.6071 20.001C61.6071 20.001 60.9674 19.281 60.7807 19.0143C60.5675 18.7743 59.981 18.001 59.981 18.001C59.981 18.001 59.3945 18.7743 59.1813 19.0143C58.968 19.2543 58.3549 20.001 58.3549 20.001C58.3549 20.001 58.9947 20.721 59.1813 20.9876C59.3945 21.2276 59.981 22.001 59.981 22.001Z" fill="#383844"/>
<path d="M54.9958 37.0146C54.9958 37.0146 55.5823 36.2413 55.7955 36.0013C56.0088 35.7613 56.6219 35.0146 56.6219 35.0146C56.6219 35.0146 55.9821 34.2946 55.7955 34.028C55.5823 33.788 54.9958 33.0146 54.9958 33.0146C54.9958 33.0146 54.4093 33.788 54.1961 34.028C53.9828 34.268 53.3697 35.0146 53.3697 35.0146C53.3697 35.0146 54.0094 35.7346 54.1961 36.0013C54.3827 36.2146 54.9958 37.0146 54.9958 37.0146Z" fill="#383844"/>
<path d="M49.9844 12C49.9844 12 50.5708 11.2267 50.7841 10.9867C50.9974 10.7467 51.6105 10 51.6105 10C51.6105 10 50.9707 9.28 50.7841 9.01333C50.5708 8.77333 49.9844 8 49.9844 8C49.9844 8 49.3979 8.77333 49.1846 9.01333C48.9714 9.25333 48.3582 10 48.3582 10C48.3582 10 48.998 10.72 49.1846 10.9867C49.3979 11.2267 49.9844 12 49.9844 12Z" fill="#383844"/>
<path d="M44.9994 27.0137C44.9994 27.0137 45.5859 26.2403 45.7991 26.0003C46.0124 25.7603 46.6255 25.0137 46.6255 25.0137C46.6255 25.0137 45.9857 24.2937 45.7991 24.027C45.5859 23.787 44.9994 23.0137 44.9994 23.0137C44.9994 23.0137 44.4129 23.787 44.1997 24.027C43.9864 24.267 43.3733 25.0137 43.3733 25.0137C43.3733 25.0137 44.013 25.7337 44.1997 26.0003C44.3863 26.2137 44.9994 27.0137 44.9994 27.0137Z" fill="#383844"/>
<path d="M78.3488 0.000976562C78.3488 0.000976562 78.9886 0.720977 79.1752 0.987643C79.3884 1.22764 79.9749 2.00098 79.9749 2.00098V0.000976562H78.3488Z" fill="#383844"/>
<path d="M78.3484 40.001C78.3484 40.001 78.9882 40.721 79.1748 40.9876C79.3881 41.2276 79.9745 42.001 79.9745 42.001V40.001V38.001C79.9745 38.001 79.3881 38.7743 79.1748 39.0143C78.9615 39.281 78.3484 40.001 78.3484 40.001Z" fill="#383844"/>
<path d="M69.9768 31.999C69.9768 31.999 70.5633 31.2257 70.7765 30.9857C70.9898 30.7457 71.6029 29.999 71.6029 29.999C71.6029 29.999 70.9631 29.279 70.7765 29.0124C70.5633 28.7724 69.9768 27.999 69.9768 27.999C69.9768 27.999 69.3903 28.7724 69.1771 29.0124C68.9638 29.2524 68.3507 29.999 68.3507 29.999C68.3507 29.999 68.9905 30.719 69.1771 30.9857C69.3903 31.2257 69.9768 31.999 69.9768 31.999Z" fill="#383844"/>
<path d="M74.9889 17.0137C74.9889 17.0137 75.5754 16.2403 75.7887 16.0003C76.0019 15.7603 76.6151 15.0137 76.6151 15.0137C76.6151 15.0137 75.9753 14.2937 75.7887 14.027C75.5754 13.787 74.9889 13.0137 74.9889 13.0137C74.9889 13.0137 74.4025 13.787 74.1892 14.027C73.9759 14.267 73.3628 15.0137 73.3628 15.0137C73.3628 15.0137 74.0026 15.7337 74.1892 16.0003C74.3758 16.2137 74.9889 17.0137 74.9889 17.0137Z" fill="#383844"/>
<path d="M64.9919 7.0127C64.9919 7.0127 65.5784 6.23936 65.7917 5.99936C66.0049 5.75936 66.6181 5.0127 66.6181 5.0127C66.6181 5.0127 65.9783 4.2927 65.7917 4.02603C65.5784 3.78603 64.9919 3.0127 64.9919 3.0127C64.9919 3.0127 64.4055 3.78603 64.1922 4.02603C63.9789 4.26603 63.3658 5.0127 63.3658 5.0127C63.3658 5.0127 64.0056 5.7327 64.1922 5.99936C64.3788 6.2127 64.9919 7.0127 64.9919 7.0127Z" fill="#383844"/>
<path d="M76.6684 33.4673C76.3752 33.2006 75.9753 33.2273 75.8953 33.2273C75.3355 33.2806 75.0156 33.7606 74.989 33.814C74.9623 33.7606 74.6424 33.2806 74.0826 33.2273C74.0026 33.2273 73.6028 33.2006 73.3095 33.4673C72.963 33.7606 73.0163 34.214 73.0163 34.294C73.0163 34.374 73.0696 34.5873 73.3895 34.9873C73.8693 35.574 74.1892 35.6806 74.6424 36.2406C74.829 36.454 74.9356 36.6673 75.0156 36.774C75.0956 36.6406 75.2022 36.454 75.3888 36.2406C75.8154 35.6806 76.1619 35.6006 76.6417 34.9873C76.9883 34.5606 77.015 34.374 77.015 34.294C76.9883 34.214 77.015 33.7606 76.6684 33.4673Z" fill="#383844"/>
<path d="M66.6718 23.4663C66.3785 23.1997 65.9787 23.2263 65.8987 23.2263C65.3389 23.2797 65.019 23.7597 64.9923 23.813C64.9657 23.7597 64.6458 23.2797 64.086 23.2263C64.006 23.2263 63.6061 23.1997 63.3129 23.4663C62.9663 23.7597 63.0196 24.213 63.0196 24.293C63.0196 24.373 63.073 24.5863 63.3929 24.9863C63.8727 25.573 64.1926 25.6797 64.6458 26.2397C64.8324 26.453 64.939 26.6663 65.019 26.773C65.099 26.6397 65.2056 26.453 65.3922 26.2397C65.8187 25.6797 66.1653 25.5997 66.6451 24.9863C66.9917 24.5597 67.0183 24.373 67.0183 24.293C66.9917 24.213 67.0183 23.7597 66.6718 23.4663Z" fill="#383844"/>
<path d="M71.684 8.45461C71.3907 8.18794 70.9909 8.21461 70.9109 8.21461C70.3511 8.26794 70.0312 8.74794 70.0045 8.80127C69.9779 8.74794 69.658 8.26794 69.0982 8.21461C69.0182 8.21461 68.6183 8.18794 68.3251 8.45461C67.9785 8.74794 68.0319 9.20127 68.0319 9.28127C68.0319 9.36127 68.0852 9.57461 68.4051 9.97461C68.8849 10.5613 69.2048 10.6679 69.658 11.2279C69.8446 11.4413 69.9512 11.6546 70.0312 11.7613C70.1112 11.6279 70.2178 11.4413 70.4044 11.2279C70.8309 10.6679 71.1775 10.5879 71.6573 9.97461C72.0039 9.54794 72.0305 9.36127 72.0305 9.28127C71.9772 9.20127 72.0305 8.77461 71.684 8.45461Z" fill="#383844"/>
<path d="M56.676 13.4683C56.3827 13.2016 55.9829 13.2283 55.9029 13.2283C55.3431 13.2816 55.0232 13.7616 54.9965 13.8149C54.9699 13.7616 54.65 13.2816 54.0902 13.2283C54.0102 13.2283 53.6103 13.2016 53.3171 13.4683C52.9705 13.7616 53.0239 14.2149 53.0239 14.2949C53.0239 14.3749 53.0772 14.5883 53.3971 14.9883C53.8769 15.5749 54.1968 15.6816 54.65 16.2416C54.8366 16.4549 54.9432 16.6683 55.0232 16.7749C55.1032 16.6416 55.2098 16.4549 55.3964 16.2416C55.8229 15.6816 56.1695 15.6016 56.6493 14.9883C56.9959 14.5616 57.0225 14.3749 57.0225 14.2949C56.9959 14.2149 57.0225 13.7616 56.676 13.4683Z" fill="#383844"/>
<path d="M61.6867 38.4536C61.3935 38.187 60.9936 38.2136 60.9136 38.2136C60.3538 38.267 60.0339 38.747 60.0073 38.8003C59.9806 38.747 59.6607 38.267 59.1009 38.2136C59.0209 38.2136 58.6211 38.187 58.3278 38.4536C57.9813 38.747 58.0346 39.2003 58.0346 39.2803C58.0346 39.3603 58.0879 39.5736 58.4078 39.9736C58.8876 40.5603 59.2075 40.667 59.6607 41.2003C59.8473 41.4136 59.954 41.627 60.0339 41.7336C60.1139 41.6003 60.2205 41.4136 60.4071 41.2003C60.8337 40.6403 61.1802 40.5603 61.6601 39.9736C62.0066 39.547 62.0333 39.3603 62.0333 39.2803C61.9799 39.2003 62.0333 38.7736 61.6867 38.4536Z" fill="#383844"/>
<path d="M41.6945 18.4546C41.4012 18.1879 41.0014 18.2146 40.9214 18.2146C40.3616 18.2679 40.0417 18.7479 40.015 18.8013C39.9884 18.7479 39.6685 18.2679 39.1087 18.2146C39.0287 18.2146 38.6288 18.1879 38.3356 18.4546C37.989 18.7479 38.0423 19.2013 38.0423 19.2813C38.0423 19.3613 38.0957 19.5746 38.4156 19.9746C38.8954 20.5613 39.2153 20.6679 39.6685 21.2279C39.8551 21.4413 39.9617 21.6546 40.0417 21.7613C40.1217 21.6279 40.2283 21.4413 40.4149 21.2279C40.8414 20.6679 41.188 20.5879 41.6678 19.9746C42.0144 19.5479 42.041 19.3613 42.041 19.2813C41.9877 19.2013 42.041 18.7746 41.6945 18.4546Z" fill="#383844"/>
<path d="M51.69 28.4536C51.3968 28.187 50.9969 28.2136 50.9169 28.2136C50.3571 28.267 50.0372 28.747 50.0106 28.8003C49.9839 28.747 49.664 28.267 49.1042 28.2136C49.0242 28.2136 48.6244 28.187 48.3311 28.4536C47.9846 28.747 48.0379 29.2003 48.0379 29.2803C48.0379 29.3603 48.0912 29.5736 48.4111 29.9736C48.8909 30.5603 49.2108 30.667 49.664 31.227C49.8506 31.4403 49.9573 31.6536 50.0372 31.7603C50.1172 31.627 50.2238 31.4403 50.4104 31.227C50.837 30.667 51.1835 30.587 51.6634 29.9736C52.0099 29.547 52.0366 29.3603 52.0366 29.2803C51.9832 29.2003 52.0366 28.7736 51.69 28.4536Z" fill="#383844"/>
<path d="M79.0676 18.2136C78.9877 18.2136 78.5878 18.187 78.2946 18.4536C77.948 18.747 78.0013 19.2003 78.0013 19.2803C78.0013 19.3603 78.0546 19.5736 78.3745 19.9736C78.8544 20.5603 79.1743 20.667 79.6275 21.227C79.8141 21.4403 79.9207 21.6536 80.0007 21.7603V18.8003C79.9474 18.747 79.6275 18.267 79.0676 18.2136Z" fill="#383844"/>
<path d="M46.6782 3.46633C46.385 3.19966 45.9851 3.22633 45.9052 3.22633C45.3453 3.27966 45.0254 3.75966 44.9988 3.81299C44.9721 3.75966 44.6522 3.27966 44.0924 3.22633C44.0125 3.22633 43.6126 3.19966 43.3194 3.46633C42.9728 3.75966 43.0261 4.21299 43.0261 4.29299C43.0261 4.37299 43.0794 4.58633 43.3993 4.98633C43.8792 5.57299 44.1991 5.67966 44.6522 6.23966C44.8388 6.45299 44.9455 6.66633 45.0254 6.77299C45.1054 6.63966 45.2121 6.45299 45.3987 6.23966C45.8252 5.67966 46.1717 5.59966 46.6516 4.98633C46.9981 4.55966 47.0248 4.37299 47.0248 4.29299C46.9981 4.21299 47.0248 3.75966 46.6782 3.46633Z" fill="#383844"/>
<path d="M59.6076 1.22764C59.7942 1.44098 59.9008 1.65431 59.9808 1.76098C60.0608 1.62764 60.1674 1.44098 60.354 1.22764C60.7805 0.667643 61.1271 0.587643 61.6069 0.000976562H58.3813C58.8345 0.587643 59.1811 0.69431 59.6076 1.22764Z" fill="#383844"/>
<path d="M19.9947 22.001C19.9947 22.001 20.5812 21.2276 20.7944 20.9876C21.0077 20.7476 21.6208 20.001 21.6208 20.001C21.6208 20.001 20.981 19.281 20.7944 19.0143C20.5812 18.7743 19.9947 18.001 19.9947 18.001C19.9947 18.001 19.4082 18.7743 19.195 19.0143C18.9817 19.2543 18.3686 20.001 18.3686 20.001C18.3686 20.001 19.0083 20.721 19.195 20.9876C19.4082 21.2276 19.9947 22.001 19.9947 22.001Z" fill="#383844"/>
<path d="M15.0091 37.0146C15.0091 37.0146 15.5956 36.2413 15.8088 36.0013C16.0221 35.7613 16.6352 35.0146 16.6352 35.0146C16.6352 35.0146 15.9954 34.2946 15.8088 34.028C15.5956 33.788 15.0091 33.0146 15.0091 33.0146C15.0091 33.0146 14.4226 33.788 14.2094 34.028C13.9961 34.268 13.383 35.0146 13.383 35.0146C13.383 35.0146 14.0228 35.7346 14.2094 36.0013C14.396 36.2146 15.0091 37.0146 15.0091 37.0146Z" fill="#383844"/>
<path d="M9.99786 12C9.99786 12 10.5843 11.2267 10.7976 10.9867C11.0109 10.7467 11.624 10 11.624 10C11.624 10 10.9842 9.28 10.7976 9.01333C10.5843 8.77333 9.99786 8 9.99786 8C9.99786 8 9.41139 8.77333 9.19813 9.01333C8.98486 9.25333 8.37173 10 8.37173 10C8.37173 10 9.01152 10.72 9.19813 10.9867C9.41139 11.2267 9.99786 12 9.99786 12Z" fill="#383844"/>
<path d="M5.01263 27.0137C5.01263 27.0137 5.5991 26.2403 5.81236 26.0003C6.02563 25.7603 6.63875 25.0137 6.63875 25.0137C6.63875 25.0137 5.99897 24.2937 5.81236 24.027C5.5991 23.787 5.01263 23.0137 5.01263 23.0137C5.01263 23.0137 4.42616 23.787 4.2129 24.027C3.99963 24.267 3.38651 25.0137 3.38651 25.0137C3.38651 25.0137 4.02629 25.7337 4.2129 26.0003C4.3995 26.2137 5.01263 27.0137 5.01263 27.0137Z" fill="#383844"/>
<path d="M39.9871 2C39.9871 2 40.5736 1.22667 40.7869 0.986667C41.0001 0.746667 41.6132 0 41.6132 0H39.9871H38.361C38.361 0 39.0008 0.72 39.1874 0.986667C39.4006 1.22667 39.9871 2 39.9871 2Z" fill="#383844"/>
<path d="M1.6268 0H0.000671387V2C0.000671387 2 0.587143 1.22667 0.800405 0.986667C1.01367 0.72 1.6268 0 1.6268 0Z" fill="#383844"/>
<path d="M29.991 32.001C29.991 32.001 30.5775 31.2276 30.7908 30.9876C31.004 30.7476 31.6171 30.001 31.6171 30.001C31.6171 30.001 30.9774 29.281 30.7908 29.0143C30.5775 28.7743 29.991 28.001 29.991 28.001C29.991 28.001 29.4046 28.7743 29.1913 29.0143C28.978 29.2543 28.3649 30.001 28.3649 30.001C28.3649 30.001 29.0047 30.721 29.1913 30.9876C29.4046 31.2276 29.991 32.001 29.991 32.001Z" fill="#383844"/>
<path d="M35.0025 17.0137C35.0025 17.0137 35.589 16.2403 35.8022 16.0003C36.0155 15.7603 36.6286 15.0137 36.6286 15.0137C36.6286 15.0137 35.9888 14.2937 35.8022 14.027C35.589 13.787 35.0025 13.0137 35.0025 13.0137C35.0025 13.0137 34.416 13.787 34.2028 14.027C33.9895 14.267 33.3764 15.0137 33.3764 15.0137C33.3764 15.0137 34.0162 15.7337 34.2028 16.0003C34.3894 16.2137 35.0025 17.0137 35.0025 17.0137Z" fill="#383844"/>
<path d="M25.0052 7.01367C25.0052 7.01367 25.5917 6.24034 25.8049 6.00034C26.0182 5.76034 26.6313 5.01367 26.6313 5.01367C26.6313 5.01367 25.9915 4.29367 25.8049 4.02701C25.5917 3.78701 25.0052 3.01367 25.0052 3.01367C25.0052 3.01367 24.4187 3.78701 24.2055 4.02701C23.9922 4.26701 23.3791 5.01367 23.3791 5.01367C23.3791 5.01367 24.0188 5.73367 24.2055 6.00034C24.3921 6.21367 25.0052 7.01367 25.0052 7.01367Z" fill="#383844"/>
<path d="M36.6816 33.4673C36.3884 33.2006 35.9885 33.2273 35.9086 33.2273C35.3488 33.2806 35.0289 33.7606 35.0022 33.814C34.9756 33.7606 34.6557 33.2806 34.0958 33.2273C34.0159 33.2273 33.616 33.2006 33.3228 33.4673C32.9762 33.7606 33.0295 34.214 33.0295 34.294C33.0295 34.374 33.0828 34.5873 33.4027 34.9873C33.8826 35.574 34.2025 35.6806 34.6557 36.2406C34.8423 36.454 34.9489 36.6673 35.0289 36.774C35.1088 36.6406 35.2155 36.454 35.4021 36.2406C35.8286 35.6806 36.1751 35.6006 36.655 34.9873C37.0015 34.5606 37.0282 34.374 37.0282 34.294C37.0015 34.214 37.0282 33.7606 36.6816 33.4673Z" fill="#383844"/>
<path d="M26.6852 23.4663C26.392 23.1997 25.9921 23.2263 25.9121 23.2263C25.3523 23.2797 25.0324 23.7597 25.0057 23.813C24.9791 23.7597 24.6592 23.2797 24.0994 23.2263C24.0194 23.2263 23.6195 23.1997 23.3263 23.4663C22.9798 23.7597 23.0331 24.213 23.0331 24.293C23.0331 24.373 23.0864 24.5863 23.4063 24.9863C23.8861 25.573 24.206 25.6797 24.6592 26.2397C24.8458 26.453 24.9524 26.6663 25.0324 26.773C25.1124 26.6397 25.219 26.453 25.4056 26.2397C25.8321 25.6797 26.1787 25.5997 26.6585 24.9863C27.0051 24.5597 27.0317 24.373 27.0317 24.293C27.0051 24.213 27.0317 23.7597 26.6852 23.4663Z" fill="#383844"/>
<path d="M31.6972 8.45558C31.404 8.18892 31.0041 8.21558 30.9241 8.21558C30.3643 8.26892 30.0444 8.74892 30.0178 8.80225C29.9911 8.74892 29.6712 8.26892 29.1114 8.21558C29.0314 8.21558 28.6316 8.18892 28.3383 8.45558C27.9918 8.74892 28.0451 9.20225 28.0451 9.28225C28.0451 9.36225 28.0984 9.57559 28.4183 9.97559C28.8981 10.5623 29.218 10.6689 29.6712 11.2289C29.8578 11.4423 29.9645 11.6556 30.0444 11.7623C30.1244 11.6289 30.231 11.4423 30.4176 11.2289C30.8442 10.6689 31.1907 10.5889 31.6706 9.97559C32.0171 9.54892 32.0438 9.36225 32.0438 9.28225C31.9904 9.20225 32.0438 8.77558 31.6972 8.45558Z" fill="#383844"/>
<path d="M16.6879 13.4673C16.3947 13.2006 15.9948 13.2273 15.9149 13.2273C15.355 13.2806 15.0352 13.7606 15.0085 13.814C14.9818 13.7606 14.6619 13.2806 14.1021 13.2273C14.0222 13.2273 13.6223 13.2006 13.3291 13.4673C12.9825 13.7606 13.0358 14.214 13.0358 14.294C13.0358 14.374 13.0891 14.5873 13.409 14.9873C13.8889 15.574 14.2088 15.6806 14.6619 16.2406C14.8485 16.454 14.9552 16.6673 15.0352 16.774C15.1151 16.6406 15.2218 16.454 15.4084 16.2406C15.8349 15.6806 16.1814 15.6006 16.6613 14.9873C17.0078 14.5606 17.0345 14.374 17.0345 14.294C17.0078 14.214 17.0345 13.7606 16.6879 13.4673Z" fill="#383844"/>
<path d="M21.7001 38.4536C21.4069 38.187 21.007 38.2136 20.9271 38.2136C20.3673 38.267 20.0474 38.747 20.0207 38.8003C19.994 38.747 19.6742 38.267 19.1143 38.2136C19.0344 38.2136 18.6345 38.187 18.3413 38.4536C17.9947 38.747 18.048 39.2003 18.048 39.2803C18.048 39.3603 18.1013 39.5736 18.4212 39.9736C18.9011 40.5603 19.221 40.667 19.6742 41.2003C19.8608 41.4136 19.9674 41.627 20.0474 41.7336C20.1273 41.6003 20.234 41.4136 20.4206 41.2003C20.8471 40.6403 21.1936 40.5603 21.6735 39.9736C22.02 39.547 22.0467 39.3603 22.0467 39.2803C21.9934 39.2003 22.0467 38.7736 21.7001 38.4536Z" fill="#383844"/>
<path d="M1.70736 18.4546C1.41413 18.1879 1.01426 18.2146 0.934288 18.2146C0.374475 18.2679 0.0545814 18.7479 0.0279236 18.8013V21.7879C0.107897 21.6546 0.214528 21.4679 0.401132 21.2546C0.800999 20.6946 1.14755 20.5879 1.60073 20.0013C1.94728 19.5746 1.97394 19.3879 1.97394 19.3079C2.0006 19.2013 2.05391 18.7746 1.70736 18.4546Z" fill="#383844"/>
<path d="M11.7031 28.4536C11.4099 28.187 11.01 28.2136 10.9301 28.2136C10.3702 28.267 10.0503 28.747 10.0237 28.8003C9.99703 28.747 9.67714 28.267 9.11733 28.2136C9.03735 28.2136 8.63749 28.187 8.34425 28.4536C7.9977 28.747 8.05102 29.2003 8.05102 29.2803C8.05102 29.3603 8.10433 29.5736 8.42423 29.9736C8.90407 30.5603 9.22396 30.667 9.67714 31.227C9.86375 31.4403 9.97038 31.6536 10.0504 31.7603C10.1303 31.627 10.237 31.4403 10.4236 31.227C10.8501 30.667 11.1966 30.587 11.6765 29.9736C12.023 29.547 12.0497 29.3603 12.0497 29.2803C11.9964 29.2003 12.0497 28.7736 11.7031 28.4536Z" fill="#383844"/>
<path d="M6.69147 3.46633C6.39824 3.19966 5.99837 3.22633 5.9184 3.22633C5.35859 3.27966 5.03869 3.75966 5.01203 3.81299C4.98538 3.75966 4.66548 3.27966 4.10567 3.22633C4.0257 3.22633 3.62583 3.19966 3.33259 3.46633C2.98604 3.75966 3.03936 4.21299 3.03936 4.29299C3.03936 4.37299 3.09267 4.58633 3.41257 4.98633C3.89241 5.57299 4.2123 5.67966 4.66548 6.23966C4.85209 6.45299 4.95872 6.66633 5.03869 6.77299C5.11867 6.63966 5.2253 6.45299 5.4119 6.23966C5.83843 5.67966 6.18498 5.59966 6.66482 4.98633C7.01137 4.55966 7.03803 4.37299 7.03803 4.29299C7.01137 4.21299 7.03803 3.75966 6.69147 3.46633Z" fill="#383844"/>
<path d="M19.6211 1.22764C19.8077 1.44098 19.9144 1.65431 19.9943 1.76098C20.0743 1.62764 20.1809 1.44098 20.3675 1.22764C20.7941 0.69431 21.1406 0.587643 21.5938 0.000976562H18.3949C18.848 0.587643 19.1946 0.69431 19.6211 1.22764Z" fill="#383844"/>
<path d="M61.1215 51.3076C61.4948 51.2543 61.7082 50.881 61.7615 50.5876C61.8148 50.241 61.6815 49.921 61.4415 49.681C61.0948 49.3076 60.8015 49.041 60.3482 48.5343C60.1882 48.3476 60.0548 48.1076 60.0015 48.001C59.9482 48.1076 59.8148 48.3476 59.6548 48.5343C59.2015 49.041 58.9348 49.3076 58.5615 49.681C58.3215 49.9476 58.1615 50.241 58.2415 50.5876C58.2948 50.881 58.5082 51.2276 58.8815 51.3076C59.2282 51.361 59.6282 51.2543 59.8682 50.961C59.8948 51.0943 59.8415 51.281 59.7615 51.4676C59.6548 51.7076 59.4415 52.001 59.4415 52.001H60.5348C60.5348 52.001 60.3215 51.7076 60.2148 51.4676C60.1348 51.281 60.0815 51.0943 60.1081 50.961C60.3481 51.281 60.7748 51.361 61.1215 51.3076Z" fill="#3E3B48"/>
<path d="M51.1209 41.3076C51.4942 41.2543 51.7076 40.881 51.7609 40.5876C51.7876 40.3743 51.7609 40.161 51.6542 40.001C51.6009 39.8943 51.5209 39.7876 51.4142 39.681C51.0676 39.3076 50.7742 39.041 50.3209 38.5343C50.1609 38.3476 50.0276 38.1076 49.9742 38.001C49.9209 38.1076 49.7876 38.3476 49.6276 38.5343C49.1742 39.041 48.9076 39.3076 48.5342 39.681C48.4542 39.7876 48.3742 39.8943 48.2942 40.001C48.1876 40.1876 48.1609 40.3743 48.1876 40.5876C48.2409 40.881 48.4542 41.2276 48.8276 41.3076C49.1742 41.361 49.5742 41.2543 49.8142 40.961C49.8409 41.0943 49.7876 41.281 49.7076 41.4676C49.6009 41.7076 49.3876 42.001 49.3876 42.001H50.4809C50.4809 42.001 50.2676 41.7076 50.1609 41.4676C50.0809 41.281 50.0276 41.0943 50.0542 40.961C50.3476 41.281 50.7742 41.361 51.1209 41.3076Z" fill="#3E3B48"/>
<path d="M55.3339 63.6007C55.1739 63.414 55.0406 63.174 54.9873 63.0674C54.9339 63.174 54.8006 63.414 54.6406 63.6007C54.1873 64.1074 53.9206 64.3741 53.5473 64.7474C53.3073 65.0141 53.1473 65.3074 53.2273 65.654C53.2806 65.9474 53.4939 66.294 53.8673 66.374C54.2139 66.4274 54.6139 66.3207 54.8539 66.0274C54.8806 66.1607 54.8273 66.3474 54.7473 66.534C54.6406 66.774 54.4273 67.0674 54.4273 67.0674H55.5206C55.5206 67.0674 55.3073 66.774 55.2006 66.534C55.1206 66.3474 55.0673 66.1607 55.0939 66.0274C55.3339 66.3474 55.7339 66.4274 56.0806 66.374C56.4539 66.3207 56.6673 65.9474 56.7206 65.654C56.7739 65.3074 56.6406 64.9874 56.4006 64.7474C56.0806 64.3741 55.7873 64.1074 55.3339 63.6007Z" fill="#3E3B48"/>
<path d="M65.3349 73.548C65.1749 73.3613 65.0416 73.1213 64.9882 73.0146C64.9349 73.1213 64.8016 73.3613 64.6416 73.548C64.1882 74.0546 63.9216 74.3213 63.5482 74.6947C63.3082 74.9613 63.1482 75.2547 63.2282 75.6013C63.2816 75.8947 63.4949 76.2413 63.8682 76.3213C64.2149 76.3747 64.6149 76.268 64.8549 75.9747C64.8816 76.108 64.8282 76.2946 64.7482 76.4813C64.6416 76.7213 64.4282 77.0146 64.4282 77.0146H65.5216C65.5216 77.0146 65.3082 76.7213 65.2016 76.4813C65.1216 76.2946 65.0682 76.108 65.0949 75.9747C65.3349 76.2947 65.7349 76.3747 66.0816 76.3213C66.4549 76.268 66.6682 75.8947 66.7216 75.6013C66.7749 75.2547 66.6416 74.9347 66.4016 74.6947C66.0816 74.2947 65.7882 74.0546 65.3349 73.548Z" fill="#3E3B48"/>
<path d="M50.3474 78.5343C50.1874 78.3476 50.0541 78.1076 50.0008 78.001C49.9474 78.1076 49.8141 78.3476 49.6541 78.5343C49.2008 79.041 48.9341 79.3076 48.5608 79.681C48.4808 79.7876 48.4008 79.8943 48.3208 80.001H51.6274C51.5741 79.8943 51.4941 79.7876 51.3874 79.681C51.0674 79.3076 50.8008 79.041 50.3474 78.5343Z" fill="#3E3B48"/>
<path d="M78.5879 69.681C78.3479 69.9476 78.1879 70.241 78.2679 70.5876C78.3212 70.881 78.5346 71.2276 78.9079 71.3076C79.2546 71.361 79.6546 71.2543 79.8946 70.961C79.9212 71.0943 79.8679 71.281 79.7879 71.4676C79.6812 71.7076 79.4679 72.001 79.4679 72.001H80.0012V68.001C79.9479 68.1076 79.8146 68.3476 79.6546 68.5343C79.2012 69.041 78.9346 69.3076 78.5879 69.681Z" fill="#3E3B48"/>
<path d="M46.1076 56.3213C46.481 56.268 46.6943 55.8946 46.7476 55.6013C46.801 55.2546 46.6676 54.9346 46.4276 54.6946C46.081 54.3213 45.7876 54.0546 45.3343 53.548C45.1743 53.3613 45.041 53.1213 44.9876 53.0146C44.9343 53.1213 44.801 53.3613 44.641 53.548C44.1876 54.0546 43.921 54.3213 43.5476 54.6946C43.3076 54.9613 43.1476 55.2546 43.2276 55.6013C43.281 55.8946 43.4943 56.2413 43.8676 56.3213C44.2143 56.3746 44.6143 56.268 44.8543 55.9746C44.881 56.108 44.8276 56.2946 44.7476 56.4813C44.641 56.7213 44.4276 57.0146 44.4276 57.0146H45.521C45.521 57.0146 45.3076 56.7213 45.201 56.4813C45.121 56.2946 45.0676 56.108 45.0943 55.9746C45.361 56.268 45.761 56.3746 46.1076 56.3213Z" fill="#3E3B48"/>
<path d="M40.3471 68.5333C40.1871 68.3467 40.0537 68.1067 40.0004 68C39.9471 68.1067 39.8137 68.3467 39.6537 68.5333C39.2004 69.04 38.9337 69.3067 38.5604 69.68C38.3204 69.9467 38.1604 70.24 38.2404 70.5867C38.2937 70.88 38.5071 71.2267 38.8804 71.3067C39.2271 71.36 39.6271 71.2533 39.8671 70.96C39.8937 71.0933 39.8404 71.28 39.7604 71.4667C39.6537 71.7067 39.4404 72 39.4404 72H39.9737H40.5071C40.5071 72 40.2937 71.7067 40.1871 71.4667C40.1071 71.28 40.0537 71.0933 40.0804 70.96C40.3204 71.28 40.7204 71.36 41.0671 71.3067C41.4404 71.2533 41.6537 70.88 41.7071 70.5867C41.7604 70.24 41.6271 69.92 41.3871 69.68C41.0671 69.3067 40.8004 69.04 40.3471 68.5333Z" fill="#3E3B48"/>
<path d="M76.1076 46.3203C76.4809 46.267 76.6942 45.8937 76.7476 45.6003C76.8009 45.2537 76.6676 44.9337 76.4276 44.6937C76.0809 44.3203 75.7876 44.0537 75.3342 43.547C75.1742 43.3603 75.0409 43.1203 74.9876 43.0137C74.9342 43.1203 74.8009 43.3603 74.6409 43.547C74.1876 44.0537 73.9209 44.3203 73.5476 44.6937C73.3076 44.9603 73.1476 45.2537 73.2276 45.6003C73.2809 45.8937 73.4942 46.2403 73.8676 46.3203C74.2142 46.3737 74.6142 46.267 74.8542 45.9737C74.8809 46.107 74.8276 46.2937 74.7476 46.4803C74.6409 46.7203 74.4276 47.0137 74.4276 47.0137H75.5209C75.5209 47.0137 75.3076 46.7203 75.2009 46.4803C75.1209 46.2937 75.0676 46.107 75.0942 45.9737C75.3609 46.267 75.7609 46.3737 76.1076 46.3203Z" fill="#3E3B48"/>
<path d="M71.1204 61.3067C71.4937 61.2533 71.7071 60.88 71.7604 60.5867C71.8137 60.24 71.6804 59.92 71.4404 59.68C71.0937 59.3067 70.8004 59.04 70.347 58.5333C70.187 58.3467 70.0537 58.1067 70.0004 58C69.9471 58.1067 69.8137 58.3467 69.6537 58.5333C69.2004 59.04 68.9337 59.3067 68.5604 59.68C68.3204 59.9467 68.1604 60.24 68.2404 60.5867C68.2937 60.88 68.507 61.2267 68.8804 61.3067C69.227 61.36 69.6271 61.2533 69.8671 60.96C69.8937 61.0933 69.8404 61.28 69.7604 61.4667C69.6537 61.7067 69.4404 62 69.4404 62H70.5337C70.5337 62 70.3204 61.7067 70.2137 61.4667C70.1337 61.28 70.0804 61.0933 70.1071 60.96C70.3471 61.28 70.7737 61.36 71.1204 61.3067Z" fill="#3E3B48"/>
<path d="M60.6137 69.6C60.8804 69.3867 61.0404 69.0667 60.9871 68.7733C60.9337 68.3467 60.5071 68 60.0004 68C59.4937 68 59.0671 68.3467 59.0137 68.7733C58.9604 69.0933 59.1204 69.3867 59.3871 69.6C58.9871 69.4133 58.5337 69.52 58.2671 69.8133C57.9471 70.2133 58.0537 70.8267 58.4004 71.12C58.8004 71.44 59.5204 71.36 59.8671 70.8C59.8671 70.96 59.8404 71.0933 59.8404 71.2C59.8137 71.4133 59.7871 71.5467 59.7337 71.7067C59.6804 71.8133 59.6271 71.92 59.5737 71.9733C59.7071 71.9733 60.2671 71.9733 60.4004 71.9733C60.3471 71.92 60.2937 71.8133 60.2404 71.7067C60.1604 71.5467 60.1604 71.3867 60.1337 71.2C60.1071 71.0933 60.1071 70.96 60.1071 70.8C60.4537 71.3333 61.1737 71.44 61.5737 71.12C61.9471 70.8267 62.0537 70.2133 61.7071 69.8133C61.4671 69.52 61.0137 69.4133 60.6137 69.6Z" fill="#3E3B48"/>
<path d="M65.6269 54.5873C65.8936 54.374 66.0536 54.054 66.0003 53.7606C65.9469 53.334 65.5203 52.9873 65.0136 52.9873C64.5069 52.9873 64.0803 53.334 64.0269 53.7606C63.9736 54.0806 64.1336 54.374 64.4003 54.5873C64.0003 54.4006 63.5469 54.5073 63.2803 54.8006C62.9603 55.2006 63.0669 55.814 63.4136 56.1073C63.8136 56.4273 64.5336 56.3473 64.8803 55.7873C64.8803 55.9473 64.8536 56.0806 64.8536 56.1873C64.8269 56.4006 64.8003 56.534 64.7469 56.694C64.6936 56.8006 64.6403 56.9073 64.5869 56.9606C64.7203 56.9606 65.2803 56.9606 65.4136 56.9606C65.3603 56.9073 65.3069 56.8006 65.2536 56.694C65.1736 56.534 65.1736 56.374 65.1469 56.1873C65.1203 56.0806 65.1203 55.9473 65.1203 55.7873C65.4669 56.3206 66.1869 56.4273 66.5869 56.1073C66.9603 55.814 67.0669 55.2006 66.7203 54.8006C66.4803 54.5073 66.0269 54.4273 65.6269 54.5873Z" fill="#3E3B48"/>
<path d="M70.6139 79.6C70.8805 79.3867 71.0406 79.0667 70.9872 78.7733C70.9339 78.3467 70.5072 78 70.0006 78C69.4939 78 69.0672 78.3467 69.0139 78.7733C68.9605 79.0933 69.1206 79.3867 69.3872 79.6C68.9872 79.4133 68.5339 79.52 68.2672 79.8133C68.2139 79.8667 68.1872 79.92 68.1606 80H71.8406C71.8139 79.9467 71.7606 79.8667 71.7339 79.8133C71.4672 79.52 71.0139 79.4133 70.6139 79.6Z" fill="#3E3B48"/>
<path d="M50.6144 59.601C50.8811 59.3876 51.0411 59.0676 50.9877 58.7743C50.9344 58.3476 50.5077 58.001 50.0011 58.001C49.4944 58.001 49.0677 58.3476 49.0144 58.7743C48.9611 59.0943 49.1211 59.3876 49.3877 59.601C48.9877 59.4143 48.5344 59.521 48.2677 59.8143C47.9477 60.2143 48.0544 60.8276 48.4011 61.121C48.8011 61.441 49.5211 61.361 49.8677 60.801C49.8677 60.961 49.8411 61.0943 49.8411 61.201C49.8144 61.4143 49.7877 61.5476 49.7344 61.7076C49.6811 61.8143 49.6277 61.921 49.5744 61.9743C49.7077 61.9743 50.2677 61.9743 50.4011 61.9743C50.3477 61.921 50.2944 61.8143 50.2411 61.7076C50.1611 61.5476 50.1611 61.3876 50.1344 61.201C50.1077 61.0943 50.1077 60.961 50.1077 60.801C50.4544 61.3343 51.1744 61.441 51.5744 61.121C51.9477 60.8276 52.0544 60.2143 51.7077 59.8143C51.4677 59.521 51.0144 59.4143 50.6144 59.601Z" fill="#3E3B48"/>
<path d="M55.6269 44.5863C55.8936 44.373 56.0536 44.053 56.0003 43.7597C55.9469 43.333 55.5203 42.9863 55.0136 42.9863C54.5069 42.9863 54.0803 43.333 54.0269 43.7597C53.9736 44.0797 54.1336 44.373 54.4003 44.5863C54.0003 44.3997 53.5469 44.5063 53.2803 44.7997C52.9603 45.1997 53.0669 45.813 53.4136 46.1063C53.8136 46.4263 54.5336 46.3463 54.8803 45.7863C54.8803 45.9463 54.8536 46.0797 54.8536 46.1863C54.8269 46.3997 54.8003 46.533 54.7469 46.693C54.6936 46.7997 54.6403 46.9063 54.5869 46.9597C54.7203 46.9597 55.2803 46.9597 55.4136 46.9597C55.3603 46.9063 55.3069 46.7997 55.2536 46.693C55.1736 46.533 55.1736 46.373 55.1469 46.1863C55.1203 46.0797 55.1203 45.9463 55.1203 45.7863C55.4669 46.3197 56.1869 46.4263 56.5869 46.1063C56.9603 45.813 57.0669 45.1997 56.7203 44.7997C56.4803 44.5063 56.0269 44.4263 55.6269 44.5863Z" fill="#3E3B48"/>
<path d="M79.0138 48.7727C78.9605 49.0927 79.1205 49.386 79.3871 49.5993C78.9871 49.4127 78.5338 49.5193 78.2671 49.8127C77.9471 50.2127 78.0538 50.826 78.4005 51.1193C78.8005 51.4393 79.5205 51.3593 79.8671 50.7993C79.8671 50.9593 79.8405 51.0927 79.8405 51.1993C79.8138 51.4127 79.7871 51.546 79.7338 51.706C79.6805 51.8127 79.6271 51.9193 79.5738 51.9727C79.6538 51.9727 79.8138 51.9727 80.0005 51.9727V47.9727C79.4938 47.9993 79.0671 48.346 79.0138 48.7727Z" fill="#3E3B48"/>
<path d="M40.6144 49.601C40.8811 49.3876 41.0411 49.0676 40.9877 48.7743C40.9344 48.3476 40.5077 48.001 40.0011 48.001C39.4944 48.001 39.0677 48.3476 39.0144 48.7743C38.9611 49.0943 39.1211 49.3876 39.3877 49.601C38.9877 49.4143 38.5344 49.521 38.2677 49.8143C37.9477 50.2143 38.0544 50.8276 38.4011 51.121C38.8011 51.441 39.5211 51.361 39.8677 50.801C39.8677 50.961 39.8411 51.0943 39.8411 51.201C39.8144 51.4143 39.7877 51.5476 39.7344 51.7076C39.6811 51.8143 39.6277 51.921 39.5744 51.9743C39.6544 51.9743 39.8144 51.9743 40.0011 51.9743C40.1877 51.9743 40.3478 51.9743 40.4278 51.9743C40.3744 51.921 40.3211 51.8143 40.2677 51.7076C40.1877 51.5476 40.1878 51.3876 40.1611 51.201C40.1344 51.0943 40.1344 50.961 40.1344 50.801C40.4811 51.3343 41.2011 51.441 41.6011 51.121C41.9744 50.8276 42.0811 50.2143 41.7344 49.8143C41.4677 49.521 41.0144 49.4143 40.6144 49.601Z" fill="#3E3B48"/>
<path d="M45.6276 74.5873C45.8943 74.374 46.0543 74.054 46.0009 73.7606C45.9476 73.334 45.5209 72.9873 45.0143 72.9873C44.5076 72.9873 44.0809 73.334 44.0276 73.7606C43.9743 74.0806 44.1343 74.374 44.4009 74.5873C44.0009 74.4006 43.5476 74.5073 43.2809 74.8006C42.9609 75.2006 43.0676 75.814 43.4143 76.1073C43.8143 76.4273 44.5343 76.3473 44.8809 75.7873C44.8809 75.9473 44.8543 76.0806 44.8543 76.1873C44.8276 76.4006 44.8009 76.534 44.7476 76.694C44.6943 76.8006 44.6409 76.9073 44.5876 76.9606C44.7209 76.9606 45.2809 76.9606 45.4143 76.9606C45.3609 76.9073 45.3076 76.8006 45.2543 76.694C45.1743 76.534 45.1743 76.374 45.1476 76.1873C45.1209 76.0806 45.1209 75.9473 45.1209 75.7873C45.4676 76.3206 46.1876 76.4273 46.5876 76.1073C46.9609 75.814 47.0676 75.2006 46.7209 74.8006C46.4809 74.5073 46.0276 74.4273 45.6276 74.5873Z" fill="#3E3B48"/>
<path d="M75.6278 64.5863C75.8945 64.373 76.0545 64.053 76.0012 63.7597C75.9478 63.333 75.5212 62.9863 75.0145 62.9863C74.5078 62.9863 74.0812 63.333 74.0278 63.7597C73.9745 64.0797 74.1345 64.373 74.4012 64.5863C74.0012 64.3997 73.5478 64.5063 73.2812 64.7997C72.9612 65.1997 73.0678 65.813 73.4145 66.1063C73.8145 66.4263 74.5345 66.3463 74.8812 65.7863C74.8812 65.9463 74.8545 66.0797 74.8545 66.1863C74.8278 66.3997 74.8012 66.533 74.7478 66.693C74.6945 66.7997 74.6412 66.9063 74.5878 66.9597C74.7212 66.9597 75.2812 66.9597 75.4145 66.9597C75.3612 66.9063 75.3078 66.7997 75.2545 66.693C75.1745 66.533 75.1745 66.373 75.1478 66.1863C75.1212 66.0797 75.1212 65.9463 75.1212 65.7863C75.4678 66.3197 76.1878 66.4263 76.5878 66.1063C76.9612 65.813 77.0678 65.1997 76.7212 64.7997C76.4812 64.5063 76.0278 64.4263 75.6278 64.5863Z" fill="#3E3B48"/>
<path d="M21.1211 51.3076C21.4944 51.2543 21.7077 50.881 21.7611 50.5876C21.8144 50.241 21.6811 49.921 21.4411 49.681C21.0944 49.3076 20.8011 49.041 20.3477 48.5343C20.1877 48.3476 20.0544 48.1076 20.0011 48.001C19.9477 48.1076 19.8144 48.3476 19.6544 48.5343C19.2011 49.041 18.9344 49.3076 18.5611 49.681C18.3211 49.9476 18.1611 50.241 18.2411 50.5876C18.2944 50.881 18.5077 51.2276 18.8811 51.3076C19.2277 51.361 19.6277 51.2543 19.8677 50.961C19.8944 51.0943 19.8411 51.281 19.7611 51.4676C19.6544 51.7076 19.4411 52.001 19.4411 52.001H20.5344C20.5344 52.001 20.3211 51.7076 20.2144 51.4676C20.1344 51.281 20.0811 51.0943 20.1077 50.961C20.3477 51.281 20.7744 51.361 21.1211 51.3076Z" fill="#3E3B48"/>
<path d="M11.1209 41.3076C11.4942 41.2543 11.7076 40.881 11.7609 40.5876C11.7876 40.3743 11.7609 40.161 11.6542 40.001C11.6009 39.8943 11.5209 39.7876 11.4142 39.681C11.0676 39.3076 10.7742 39.041 10.3209 38.5343C10.1609 38.3476 10.0276 38.1076 9.97423 38.001C9.9209 38.1076 9.78757 38.3476 9.62757 38.5343C9.17423 39.041 8.90757 39.3076 8.53423 39.681C8.45423 39.7876 8.37423 39.8943 8.29423 40.001C8.18757 40.1876 8.1609 40.3743 8.18757 40.5876C8.2409 40.881 8.45423 41.2276 8.82757 41.3076C9.17423 41.361 9.57423 41.2543 9.81423 40.961C9.8409 41.0943 9.78757 41.281 9.70757 41.4676C9.6009 41.7076 9.38757 42.001 9.38757 42.001H10.4809C10.4809 42.001 10.2676 41.7076 10.1609 41.4676C10.0809 41.281 10.0276 41.0943 10.0542 40.961C10.3476 41.281 10.7742 41.361 11.1209 41.3076Z" fill="#3E3B48"/>
<path d="M15.3344 63.6007C15.1744 63.414 15.041 63.174 14.9877 63.0674C14.9344 63.174 14.801 63.414 14.641 63.6007C14.1877 64.1074 13.921 64.3741 13.5477 64.7474C13.3077 65.0141 13.1477 65.3074 13.2277 65.654C13.281 65.9474 13.4944 66.294 13.8677 66.374C14.2144 66.4274 14.6144 66.3207 14.8544 66.0274C14.881 66.1607 14.8277 66.3474 14.7477 66.534C14.641 66.774 14.4277 67.0674 14.4277 67.0674H15.521C15.521 67.0674 15.3077 66.774 15.201 66.534C15.121 66.3474 15.0677 66.1607 15.0944 66.0274C15.3344 66.3474 15.7344 66.4274 16.081 66.374C16.4544 66.3207 16.6677 65.9474 16.721 65.654C16.7744 65.3074 16.641 64.9874 16.401 64.7474C16.081 64.3741 15.7877 64.1074 15.3344 63.6007Z" fill="#3E3B48"/>
<path d="M25.3345 73.548C25.1745 73.3613 25.0412 73.1213 24.9879 73.0146C24.9345 73.1213 24.8012 73.3613 24.6412 73.548C24.1879 74.0546 23.9212 74.3213 23.5479 74.6947C23.3079 74.9613 23.1479 75.2547 23.2279 75.6013C23.2812 75.8947 23.4945 76.2413 23.8679 76.3213C24.2145 76.3747 24.6145 76.268 24.8545 75.9747C24.8812 76.108 24.8279 76.2946 24.7479 76.4813C24.6412 76.7213 24.4279 77.0146 24.4279 77.0146H25.5212C25.5212 77.0146 25.3079 76.7213 25.2012 76.4813C25.1212 76.2946 25.0679 76.108 25.0945 75.9747C25.3345 76.2947 25.7345 76.3747 26.0812 76.3213C26.4545 76.268 26.6679 75.8947 26.7212 75.6013C26.7745 75.2547 26.6412 74.9347 26.4012 74.6947C26.0812 74.2947 25.7879 74.0546 25.3345 73.548Z" fill="#3E3B48"/>
<path d="M10.3476 78.5333C10.1876 78.3467 10.0543 78.1067 10.001 78C9.94762 78.1067 9.81429 78.3467 9.65429 78.5333C9.20095 79.04 8.93429 79.3067 8.56095 79.68C8.48095 79.7867 8.40095 79.8933 8.32095 80H11.6276C11.5743 79.8933 11.4943 79.7867 11.3876 79.68C11.0676 79.3067 10.801 79.04 10.3476 78.5333Z" fill="#3E3B48"/>
<path d="M6.10781 56.3203C6.48114 56.267 6.69448 55.8937 6.74781 55.6003C6.80114 55.2537 6.66781 54.9337 6.42781 54.6937C6.08114 54.3203 5.78781 54.0537 5.33448 53.547C5.17448 53.3603 5.04114 53.1203 4.98781 53.0137C4.93448 53.1203 4.80114 53.3603 4.64114 53.547C4.18781 54.0537 3.92114 54.3203 3.54781 54.6937C3.30781 54.9603 3.14781 55.2537 3.22781 55.6003C3.28114 55.8937 3.49448 56.2403 3.86781 56.3203C4.21448 56.3737 4.61448 56.267 4.85448 55.9737C4.88114 56.107 4.82781 56.2937 4.74781 56.4803C4.64114 56.7203 4.42781 57.0137 4.42781 57.0137H5.52114C5.52114 57.0137 5.30781 56.7203 5.20114 56.4803C5.12114 56.2937 5.06781 56.107 5.09448 55.9737C5.36114 56.267 5.76114 56.3737 6.10781 56.3203Z" fill="#3E3B48"/>
<path d="M0.347277 68.5333C0.187277 68.3467 0.0539437 68.1067 0.000610352 68V72H0.533944C0.533944 72 0.32061 71.7067 0.213944 71.4667C0.133944 71.28 0.0806104 71.0933 0.107277 70.96C0.347277 71.28 0.747277 71.36 1.09394 71.3067C1.46728 71.2533 1.68061 70.88 1.73394 70.5867C1.78728 70.24 1.65394 69.92 1.41394 69.68C1.06728 69.3067 0.80061 69.04 0.347277 68.5333Z" fill="#3E3B48"/>
<path d="M36.1071 46.3203C36.4805 46.267 36.6938 45.8937 36.7471 45.6003C36.8005 45.2537 36.6671 44.9337 36.4271 44.6937C36.0805 44.3203 35.7871 44.0537 35.3338 43.547C35.1738 43.3603 35.0405 43.1203 34.9871 43.0137C34.9338 43.1203 34.8005 43.3603 34.6405 43.547C34.1871 44.0537 33.9205 44.3203 33.5471 44.6937C33.3071 44.9603 33.1471 45.2537 33.2271 45.6003C33.2805 45.8937 33.4938 46.2403 33.8671 46.3203C34.2138 46.3737 34.6138 46.267 34.8538 45.9737C34.8805 46.107 34.8271 46.2937 34.7471 46.4803C34.6405 46.7203 34.4271 47.0137 34.4271 47.0137H35.5205C35.5205 47.0137 35.3071 46.7203 35.2005 46.4803C35.1205 46.2937 35.0671 46.107 35.0938 45.9737C35.3605 46.267 35.7605 46.3737 36.1071 46.3203Z" fill="#3E3B48"/>
<path d="M31.1211 61.3076C31.4944 61.2543 31.7078 60.881 31.7611 60.5876C31.8144 60.241 31.6811 59.921 31.4411 59.681C31.0945 59.3076 30.8011 59.041 30.3478 58.5343C30.1878 58.3476 30.0544 58.1076 30.0011 58.001C29.9478 58.1076 29.8144 58.3476 29.6544 58.5343C29.2011 59.041 28.9344 59.3076 28.5611 59.681C28.3211 59.9476 28.1611 60.241 28.2411 60.5876C28.2945 60.881 28.5078 61.2276 28.8811 61.3076C29.2278 61.361 29.6278 61.2543 29.8678 60.961C29.8944 61.0943 29.8411 61.281 29.7611 61.4676C29.6544 61.7076 29.4411 62.001 29.4411 62.001H30.5344C30.5344 62.001 30.3211 61.7076 30.2145 61.4676C30.1345 61.281 30.0811 61.0943 30.1078 60.961C30.3478 61.281 30.7744 61.361 31.1211 61.3076Z" fill="#3E3B48"/>
<path d="M20.6137 69.6C20.8804 69.3867 21.0404 69.0667 20.9871 68.7733C20.9337 68.3467 20.5071 68 20.0004 68C19.4937 68 19.0671 68.3467 19.0137 68.7733C18.9604 69.0933 19.1204 69.3867 19.3871 69.6C18.9871 69.4133 18.5337 69.52 18.2671 69.8133C17.9471 70.2133 18.0537 70.8267 18.4004 71.12C18.8004 71.44 19.5204 71.36 19.8671 70.8C19.8671 70.96 19.8404 71.0933 19.8404 71.2C19.8137 71.4133 19.7871 71.5467 19.7337 71.7067C19.6804 71.8133 19.6271 71.92 19.5737 71.9733C19.7071 71.9733 20.2671 71.9733 20.4004 71.9733C20.3471 71.92 20.2937 71.8133 20.2404 71.7067C20.1604 71.5467 20.1604 71.3867 20.1337 71.2C20.1071 71.0933 20.1071 70.96 20.1071 70.8C20.4537 71.3333 21.1737 71.44 21.5737 71.12C21.9471 70.8267 22.0537 70.2133 21.7071 69.8133C21.4671 69.52 21.0137 69.4133 20.6137 69.6Z" fill="#3E3B48"/>
<path d="M25.627 54.5873C25.8937 54.374 26.0537 54.054 26.0003 53.7606C25.947 53.334 25.5203 52.9873 25.0137 52.9873C24.507 52.9873 24.0803 53.334 24.027 53.7606C23.9737 54.0806 24.1337 54.374 24.4003 54.5873C24.0003 54.4006 23.547 54.5073 23.2803 54.8006C22.9603 55.2006 23.067 55.814 23.4137 56.1073C23.8137 56.4273 24.5337 56.3473 24.8803 55.7873C24.8803 55.9473 24.8537 56.0806 24.8537 56.1873C24.827 56.4006 24.8003 56.534 24.747 56.694C24.6937 56.8006 24.6403 56.9073 24.587 56.9606C24.7203 56.9606 25.2803 56.9606 25.4137 56.9606C25.3603 56.9073 25.307 56.8006 25.2537 56.694C25.1737 56.534 25.1737 56.374 25.147 56.1873C25.1203 56.0806 25.1203 55.9473 25.1203 55.7873C25.467 56.3206 26.187 56.4273 26.587 56.1073C26.9603 55.814 27.067 55.2006 26.7203 54.8006C26.4803 54.5073 26.027 54.4273 25.627 54.5873Z" fill="#3E3B48"/>
<path d="M30.6135 79.6C30.8801 79.3867 31.0401 79.0667 30.9868 78.7733C30.9335 78.3467 30.5068 78 30.0001 78C29.4935 78 29.0668 78.3467 29.0135 78.7733C28.9601 79.0933 29.1201 79.3867 29.3868 79.6C28.9868 79.4133 28.5335 79.52 28.2668 79.8133C28.2135 79.8667 28.1868 79.92 28.1601 80H31.8401C31.8135 79.9467 31.7601 79.8667 31.7335 79.8133C31.4668 79.52 31.0135 79.4133 30.6135 79.6Z" fill="#3E3B48"/>
<path d="M10.6145 59.601C10.8811 59.3876 11.0411 59.0676 10.9878 58.7743C10.9345 58.3476 10.5078 58.001 10.0011 58.001C9.49448 58.001 9.06781 58.3476 9.01448 58.7743C8.96114 59.0943 9.12114 59.3876 9.38781 59.601C8.98781 59.4143 8.53448 59.521 8.26781 59.8143C7.94781 60.2143 8.05448 60.8276 8.40114 61.121C8.80114 61.441 9.52114 61.361 9.86781 60.801C9.86781 60.961 9.84114 61.0943 9.84114 61.201C9.81448 61.4143 9.78781 61.5476 9.73448 61.7076C9.68114 61.8143 9.62781 61.921 9.57448 61.9743C9.70781 61.9743 10.2678 61.9743 10.4011 61.9743C10.3478 61.921 10.2945 61.8143 10.2411 61.7076C10.1611 61.5476 10.1611 61.3876 10.1345 61.201C10.1078 61.0943 10.1078 60.961 10.1078 60.801C10.4545 61.3343 11.1745 61.441 11.5745 61.121C11.9478 60.8276 12.0545 60.2143 11.7078 59.8143C11.4678 59.521 11.0145 59.4143 10.6145 59.601Z" fill="#3E3B48"/>
<path d="M15.6274 44.5883C15.8941 44.3749 16.0541 44.055 16.0007 43.7616C15.9474 43.335 15.5207 42.9883 15.0141 42.9883C14.5074 42.9883 14.0807 43.335 14.0274 43.7616C13.9741 44.0816 14.1341 44.3749 14.4007 44.5883C14.0007 44.4016 13.5474 44.5083 13.2807 44.8016C12.9607 45.2016 13.0674 45.8149 13.4141 46.1083C13.8141 46.4283 14.5341 46.3483 14.8807 45.7883C14.8807 45.9483 14.8541 46.0816 14.8541 46.1883C14.8274 46.4016 14.8007 46.5349 14.7474 46.6949C14.6941 46.8016 14.6407 46.9083 14.5874 46.9616C14.7207 46.9616 15.2807 46.9616 15.4141 46.9616C15.3607 46.9083 15.3074 46.8016 15.2541 46.6949C15.1741 46.5349 15.1741 46.3749 15.1474 46.1883C15.1207 46.0816 15.1207 45.9483 15.1207 45.7883C15.4674 46.3216 16.1874 46.4283 16.5874 46.1083C16.9607 45.8149 17.0674 45.2016 16.7207 44.8016C16.4807 44.5083 16.0274 44.4283 15.6274 44.5883Z" fill="#3E3B48"/>
<path d="M0.614768 49.601C0.881434 49.3876 1.04143 49.0676 0.988101 48.7743C0.934768 48.3476 0.508101 48.001 0.00143433 48.001V52.001C0.188101 52.001 0.348101 52.001 0.428101 52.001C0.374768 51.9476 0.321434 51.841 0.268101 51.7343C0.188101 51.5743 0.188101 51.4143 0.161434 51.2276C0.134768 51.121 0.134768 50.9876 0.134768 50.8276C0.481434 51.361 1.20143 51.4676 1.60143 51.1476C1.97477 50.8543 2.08143 50.241 1.73477 49.841C1.4681 49.521 1.01477 49.4143 0.614768 49.601Z" fill="#3E3B48"/>
<path d="M5.62766 74.5873C5.89433 74.374 6.05433 74.054 6.00099 73.7606C5.94766 73.334 5.52099 72.9873 5.01433 72.9873C4.50766 72.9873 4.08099 73.334 4.02766 73.7606C3.97433 74.0806 4.13433 74.374 4.40099 74.5873C4.00099 74.4006 3.54766 74.5073 3.28099 74.8006C2.96099 75.2006 3.06766 75.814 3.41433 76.1073C3.81433 76.4273 4.53433 76.3473 4.88099 75.7873C4.88099 75.9473 4.85433 76.0806 4.85433 76.1873C4.82766 76.4006 4.80099 76.534 4.74766 76.694C4.69433 76.8006 4.64099 76.9073 4.58766 76.9606C4.72099 76.9606 5.28099 76.9606 5.41433 76.9606C5.36099 76.9073 5.30766 76.8006 5.25433 76.694C5.17433 76.534 5.17433 76.374 5.14766 76.1873C5.12099 76.0806 5.12099 75.9473 5.12099 75.7873C5.46766 76.3206 6.18766 76.4273 6.58766 76.1073C6.96099 75.814 7.06766 75.2006 6.72099 74.8006C6.48099 74.5073 6.02766 74.4273 5.62766 74.5873Z" fill="#3E3B48"/>
<path d="M35.627 64.5863C35.8937 64.373 36.0537 64.053 36.0003 63.7597C35.947 63.333 35.5203 62.9863 35.0137 62.9863C34.507 62.9863 34.0803 63.333 34.027 63.7597C33.9737 64.0797 34.1337 64.373 34.4003 64.5863C34.0003 64.3997 33.547 64.5063 33.2803 64.7997C32.9603 65.1997 33.067 65.813 33.4137 66.1063C33.8137 66.4263 34.5337 66.3463 34.8803 65.7863C34.8803 65.9463 34.8537 66.0797 34.8537 66.1863C34.827 66.3997 34.8003 66.533 34.747 66.693C34.6937 66.7997 34.6403 66.9063 34.587 66.9597C34.7203 66.9597 35.2803 66.9597 35.4137 66.9597C35.3603 66.9063 35.307 66.7997 35.2537 66.693C35.1737 66.533 35.1737 66.373 35.147 66.1863C35.1203 66.0797 35.1203 65.9463 35.1203 65.7863C35.467 66.3197 36.187 66.4263 36.587 66.1063C36.9603 65.813 37.067 65.1997 36.7203 64.7997C36.4803 64.5063 36.027 64.4263 35.627 64.5863Z" fill="#3E3B48"/>
<path d="M58.8811 11.3076C59.2278 11.361 59.6278 11.2543 59.8678 10.961C59.8944 11.0943 59.8411 11.281 59.7611 11.4676C59.6544 11.7076 59.4411 12.001 59.4411 12.001H60.5344C60.5344 12.001 60.3211 11.7076 60.2144 11.4676C60.1344 11.281 60.0811 11.0943 60.1078 10.961C60.3478 11.281 60.7478 11.361 61.0944 11.3076C61.4678 11.2543 61.6811 10.881 61.7344 10.5876C61.7878 10.241 61.6544 9.92098 61.4144 9.68098C61.0678 9.30764 60.7744 9.04098 60.3211 8.53431C60.1611 8.34764 60.0278 8.10764 59.9744 8.00098C59.9211 8.10764 59.7878 8.34764 59.6278 8.53431C59.1744 9.04098 58.9078 9.30764 58.5344 9.68098C58.2944 9.94764 58.1344 10.241 58.2144 10.5876C58.2944 10.881 58.5344 11.2543 58.8811 11.3076Z" fill="#3E3B48"/>
<path d="M48.8804 1.30667C49.2271 1.36 49.6271 1.25333 49.8671 0.96C49.8937 1.09333 49.8404 1.28 49.7604 1.46667C49.6538 1.70667 49.4404 2 49.4404 2H50.5337C50.5337 2 50.3204 1.70667 50.2138 1.46667C50.1338 1.28 50.0804 1.09333 50.1071 0.96C50.3471 1.28 50.7471 1.36 51.0938 1.30667C51.4671 1.25333 51.6804 0.88 51.7337 0.586667C51.7604 0.373333 51.7338 0.16 51.6271 0H48.3204C48.2137 0.186667 48.1871 0.373333 48.2138 0.586667C48.2938 0.88 48.5338 1.25333 48.8804 1.30667Z" fill="#3E3B48"/>
<path d="M56.1067 26.3731C56.48 26.3197 56.6934 25.9464 56.7467 25.6531C56.8 25.3064 56.6667 24.9864 56.4267 24.7464C56.08 24.3731 55.7867 24.1064 55.3334 23.5997C55.1734 23.4131 55.04 23.1731 54.9867 23.0664C54.9334 23.1731 54.8 23.4131 54.64 23.5997C54.1867 24.1064 53.92 24.3731 53.5467 24.7464C53.3067 25.0131 53.1467 25.3064 53.2267 25.6531C53.28 25.9464 53.4934 26.2931 53.8667 26.3731C54.2134 26.4264 54.6134 26.3197 54.8534 26.0264C54.88 26.1597 54.8267 26.3464 54.7467 26.5331C54.64 26.7731 54.4267 27.0664 54.4267 27.0664H55.52C55.52 27.0664 55.3067 26.7731 55.2 26.5331C55.12 26.3464 55.0667 26.1597 55.0934 26.0264C55.36 26.3464 55.76 26.4264 56.1067 26.3731Z" fill="#3E3B48"/>
<path d="M66.1071 36.3203C66.4804 36.267 66.6937 35.8937 66.7471 35.6003C66.8004 35.2537 66.6671 34.9337 66.4271 34.6937C66.0804 34.3203 65.7871 34.0537 65.3337 33.547C65.1737 33.3603 65.0404 33.1203 64.9871 33.0137C64.9337 33.1203 64.8004 33.3603 64.6404 33.547C64.1871 34.0537 63.9204 34.3203 63.5471 34.6937C63.3071 34.9603 63.1471 35.2537 63.2271 35.6003C63.2804 35.8937 63.4937 36.2403 63.8671 36.3203C64.2137 36.3737 64.6137 36.267 64.8537 35.9737C64.8804 36.107 64.8271 36.2937 64.7471 36.4803C64.6404 36.7203 64.4271 37.0137 64.4271 37.0137H65.5204C65.5204 37.0137 65.3071 36.7203 65.2004 36.4803C65.1204 36.2937 65.0671 36.107 65.0937 35.9737C65.3604 36.267 65.7604 36.3737 66.1071 36.3203Z" fill="#3E3B48"/>
<path d="M78.5868 29.679C78.3468 29.9457 78.1868 30.239 78.2668 30.5857C78.3201 30.879 78.5334 31.2257 78.9067 31.3057C79.2534 31.359 79.6534 31.2524 79.8934 30.959C79.9201 31.0924 79.8668 31.279 79.7868 31.4657C79.6801 31.7057 79.4668 31.999 79.4668 31.999H80.0001V27.999C79.9468 28.1057 79.8134 28.3457 79.6534 28.5324C79.2001 29.039 78.9334 29.3057 78.5868 29.679Z" fill="#3E3B48"/>
<path d="M43.8944 16.3213C44.2411 16.3746 44.6411 16.268 44.8811 15.9746C44.9077 16.108 44.8544 16.2946 44.7744 16.4813C44.6677 16.7213 44.4544 17.0146 44.4544 17.0146H45.5477C45.5477 17.0146 45.3344 16.7213 45.2278 16.4813C45.1478 16.2946 45.0944 16.108 45.1211 15.9746C45.3611 16.2946 45.7611 16.3746 46.1077 16.3213C46.4811 16.268 46.6944 15.8946 46.7477 15.6013C46.8011 15.2546 46.6678 14.9346 46.4278 14.6946C46.0811 14.3213 45.7877 14.0546 45.3344 13.548C45.1744 13.3613 45.0411 13.1213 44.9877 13.0146C44.9344 13.1213 44.8011 13.3613 44.6411 13.548C44.1877 14.0546 43.9211 14.3213 43.5477 14.6946C43.3077 14.9613 43.1478 15.2546 43.2278 15.6013C43.3078 15.8946 43.5211 16.2413 43.8944 16.3213Z" fill="#3E3B48"/>
<path d="M41.1212 31.3067C41.4945 31.2533 41.7078 30.88 41.7612 30.5867C41.8145 30.24 41.6812 29.92 41.4412 29.68C41.0945 29.3067 40.8012 29.04 40.3478 28.5333C40.1878 28.3467 40.0545 28.1067 40.0012 28C39.9478 28.1067 39.8145 28.3467 39.6545 28.5333C39.2012 29.04 38.9345 29.3067 38.5612 29.68C38.3212 29.9467 38.1612 30.24 38.2412 30.5867C38.2945 30.88 38.5078 31.2267 38.8812 31.3067C39.2278 31.36 39.6278 31.2533 39.8678 30.96C39.8945 31.0933 39.8412 31.28 39.7612 31.4667C39.6545 31.7067 39.4412 32 39.4412 32H39.9745H40.5078C40.5078 32 40.2945 31.7067 40.1878 31.4667C40.1078 31.28 40.0545 31.0933 40.0812 30.96C40.3478 31.28 40.7745 31.36 41.1212 31.3067Z" fill="#3E3B48"/>
<path d="M73.8937 6.31936C74.2404 6.3727 74.6403 6.26603 74.8803 5.9727C74.907 6.10603 74.8537 6.2927 74.7737 6.47936C74.667 6.71936 74.4537 7.0127 74.4537 7.0127H75.547C75.547 7.0127 75.3337 6.71936 75.227 6.47936C75.147 6.2927 75.0937 6.10603 75.1204 5.9727C75.3604 6.2927 75.7603 6.3727 76.107 6.31936C76.4803 6.26603 76.6937 5.8927 76.747 5.59936C76.8003 5.2527 76.667 4.9327 76.427 4.6927C76.0804 4.31936 75.787 4.0527 75.3337 3.54603C75.1737 3.35936 75.0404 3.11936 74.987 3.0127C74.9337 3.11936 74.8003 3.35936 74.6403 3.54603C74.187 4.0527 73.9203 4.31936 73.547 4.6927C73.307 4.95936 73.147 5.2527 73.227 5.59936C73.307 5.8927 73.5204 6.23936 73.8937 6.31936Z" fill="#3E3B48"/>
<path d="M71.1207 21.3076C71.494 21.2543 71.7074 20.881 71.7607 20.5876C71.814 20.241 71.6807 19.921 71.4407 19.681C71.094 19.3076 70.8007 19.041 70.3474 18.5343C70.1874 18.3476 70.054 18.1076 70.0007 18.001C69.9474 18.1076 69.814 18.3476 69.654 18.5343C69.2007 19.041 68.934 19.3076 68.5607 19.681C68.3207 19.9476 68.1607 20.241 68.2407 20.5876C68.294 20.881 68.5074 21.2276 68.8807 21.3076C69.2274 21.361 69.6274 21.2543 69.8674 20.961C69.894 21.0943 69.8407 21.281 69.7607 21.4676C69.654 21.7076 69.4407 22.001 69.4407 22.001H70.534C70.534 22.001 70.3207 21.7076 70.214 21.4676C70.134 21.281 70.0807 21.0943 70.1074 20.961C70.3474 21.281 70.774 21.361 71.1207 21.3076Z" fill="#3E3B48"/>
<path d="M60.6145 29.6C60.8812 29.3867 61.0412 29.0667 60.9879 28.7733C60.9345 28.3467 60.5079 28 60.0012 28C59.4945 28 59.0679 28.3467 59.0145 28.7733C58.9612 29.0933 59.1212 29.3867 59.3879 29.6C58.9879 29.4133 58.5345 29.52 58.2679 29.8133C57.9479 30.2133 58.0545 30.8267 58.4012 31.12C58.8012 31.44 59.5212 31.36 59.8679 30.8C59.8679 30.96 59.8412 31.0933 59.8412 31.2C59.8145 31.4133 59.7879 31.5467 59.7345 31.7067C59.6812 31.8133 59.6279 31.92 59.5745 31.9733C59.7079 31.9733 60.2679 31.9733 60.4012 31.9733C60.3479 31.92 60.2945 31.8133 60.2412 31.7067C60.1612 31.5467 60.1612 31.3867 60.1345 31.2C60.1079 31.0933 60.1079 30.96 60.1079 30.8C60.4545 31.3333 61.1745 31.44 61.5745 31.12C61.9479 30.8267 62.0545 30.2133 61.7079 29.8133C61.4679 29.52 61.0145 29.4133 60.6145 29.6Z" fill="#3E3B48"/>
<path d="M65.6277 14.5863C65.8944 14.373 66.0544 14.053 66.0011 13.7597C65.9477 13.333 65.5211 12.9863 65.0144 12.9863C64.5077 12.9863 64.0811 13.333 64.0277 13.7597C63.9744 14.0797 64.1344 14.373 64.4011 14.5863C64.0011 14.3997 63.5477 14.5063 63.2811 14.7997C62.9611 15.1997 63.0677 15.813 63.4144 16.1063C63.8144 16.4263 64.5344 16.3463 64.8811 15.7863C64.8811 15.9463 64.8544 16.0797 64.8544 16.1863C64.8277 16.3997 64.8011 16.533 64.7477 16.693C64.6944 16.7997 64.6411 16.9063 64.5877 16.9597C64.7211 16.9597 65.2811 16.9597 65.4144 16.9597C65.3611 16.9063 65.3077 16.7997 65.2544 16.693C65.1744 16.533 65.1744 16.373 65.1477 16.1863C65.1211 16.0797 65.1211 15.9463 65.1211 15.7863C65.4677 16.3197 66.1877 16.4263 66.5877 16.1063C66.9611 15.813 67.0677 15.1997 66.7211 14.7997C66.4811 14.5063 66.0277 14.4263 65.6277 14.5863Z" fill="#3E3B48"/>
<path d="M71.7349 39.8143C71.4682 39.521 71.0149 39.4143 70.6149 39.601C70.8815 39.3876 71.0415 39.0676 70.9882 38.7743C70.9349 38.3476 70.5082 38.001 70.0015 38.001C69.4949 38.001 69.0682 38.3476 69.0149 38.7743C68.9615 39.0943 69.1215 39.3876 69.3882 39.601C68.9882 39.4143 68.5349 39.521 68.2682 39.8143C68.2149 39.8676 68.1882 39.921 68.1615 40.001C67.9749 40.3743 68.1082 40.881 68.4282 41.121C68.8282 41.441 69.5482 41.361 69.8949 40.801C69.8949 40.961 69.8682 41.0943 69.8682 41.201C69.8415 41.4143 69.8149 41.5476 69.7615 41.7076C69.7082 41.8143 69.6549 41.921 69.6015 41.9743C69.7349 41.9743 70.2949 41.9743 70.4282 41.9743C70.3749 41.921 70.3215 41.8143 70.2682 41.7076C70.1882 41.5476 70.1882 41.3876 70.1615 41.201C70.1349 41.0943 70.1349 40.961 70.1349 40.801C70.4815 41.3343 71.2015 41.441 71.6015 41.121C71.9215 40.881 72.0282 40.3743 71.8682 40.001C71.8149 39.9476 71.7882 39.8676 71.7349 39.8143Z" fill="#3E3B48"/>
<path d="M50.6141 19.6C50.8808 19.3867 51.0408 19.0667 50.9874 18.7733C50.9341 18.3467 50.5074 18 50.0008 18C49.4941 18 49.0674 18.3467 49.0141 18.7733C48.9608 19.0933 49.1208 19.3867 49.3874 19.6C48.9874 19.4133 48.5341 19.52 48.2674 19.8133C47.9474 20.2133 48.0541 20.8267 48.4008 21.12C48.8008 21.44 49.5208 21.36 49.8674 20.8C49.8674 20.96 49.8408 21.0933 49.8408 21.2C49.8141 21.4133 49.7874 21.5467 49.7341 21.7067C49.6808 21.8133 49.6274 21.92 49.5741 21.9733C49.7074 21.9733 50.2674 21.9733 50.4008 21.9733C50.3474 21.92 50.2941 21.8133 50.2408 21.7067C50.1608 21.5467 50.1608 21.3867 50.1341 21.2C50.1074 21.0933 50.1074 20.96 50.1074 20.8C50.4541 21.3333 51.1741 21.44 51.5741 21.12C51.9474 20.8267 52.0541 20.2133 51.7074 19.8133C51.4674 19.52 51.0141 19.4133 50.6141 19.6Z" fill="#3E3B48"/>
<path d="M55.6273 4.5873C55.894 4.37397 56.054 4.05397 56.0006 3.76064C55.9473 3.33397 55.5206 2.9873 55.014 2.9873C54.5073 2.9873 54.0806 3.33397 54.0273 3.76064C53.974 4.08064 54.134 4.37397 54.4006 4.5873C54.0006 4.40064 53.5473 4.5073 53.2806 4.80064C52.9606 5.20064 53.0673 5.81397 53.414 6.1073C53.814 6.4273 54.534 6.3473 54.8806 5.7873C54.8806 5.9473 54.854 6.08064 54.854 6.1873C54.8273 6.40064 54.8006 6.53397 54.7473 6.69397C54.694 6.80064 54.6406 6.9073 54.5873 6.96064C54.7206 6.96064 55.2806 6.96064 55.414 6.96064C55.3606 6.9073 55.3073 6.80064 55.254 6.69397C55.174 6.53397 55.174 6.37397 55.1473 6.1873C55.1206 6.08064 55.1206 5.9473 55.1206 5.7873C55.4673 6.32064 56.1873 6.4273 56.5873 6.1073C56.9606 5.81397 57.0673 5.20064 56.7206 4.80064C56.4806 4.5073 56.0273 4.4273 55.6273 4.5873Z" fill="#3E3B48"/>
<path d="M79.0136 8.77333C78.9603 9.09333 79.1203 9.38667 79.387 9.6C78.987 9.41333 78.5336 9.52 78.267 9.81333C77.947 10.2133 78.0536 10.8267 78.4003 11.12C78.8003 11.44 79.5203 11.36 79.867 10.8C79.867 10.96 79.8403 11.0933 79.8403 11.2C79.8136 11.4133 79.787 11.5467 79.7336 11.7067C79.6803 11.8133 79.627 11.92 79.5736 11.9733C79.6536 11.9733 79.8136 11.9733 80.0003 11.9733V8C79.4936 8 79.067 8.34667 79.0136 8.77333Z" fill="#3E3B48"/>
<path d="M40.6136 9.6C40.8803 9.38667 41.0403 9.06667 40.987 8.77333C40.9336 8.34667 40.507 8 40.0003 8C39.4936 8 39.067 8.34667 39.0136 8.77333C38.9603 9.09333 39.1203 9.38667 39.387 9.6C38.987 9.41333 38.5336 9.52 38.267 9.81333C37.947 10.2133 38.0536 10.8267 38.4003 11.12C38.8003 11.44 39.5203 11.36 39.867 10.8C39.867 10.96 39.8403 11.0933 39.8403 11.2C39.8136 11.4133 39.787 11.5467 39.7336 11.7067C39.6803 11.8133 39.627 11.92 39.5736 11.9733C39.6536 11.9733 39.8136 11.9733 40.0003 11.9733C40.187 11.9733 40.347 11.9733 40.427 11.9733C40.3736 11.92 40.3203 11.8133 40.267 11.7067C40.187 11.5467 40.187 11.3867 40.1603 11.2C40.1336 11.0933 40.1336 10.96 40.1336 10.8C40.4803 11.3333 41.2003 11.44 41.6003 11.12C41.9736 10.8267 42.0803 10.2133 41.7336 9.81333C41.467 9.52 41.0136 9.41333 40.6136 9.6Z" fill="#3E3B48"/>
<path d="M45.6275 34.5883C45.8942 34.3749 46.0542 34.0549 46.0009 33.7616C45.9475 33.3349 45.5209 32.9883 45.0142 32.9883C44.5075 32.9883 44.0809 33.3349 44.0275 33.7616C43.9742 34.0816 44.1342 34.3749 44.4009 34.5883C44.0009 34.4016 43.5475 34.5083 43.2809 34.8016C42.9609 35.2016 43.0675 35.8149 43.4142 36.1083C43.8142 36.4283 44.5342 36.3483 44.8809 35.7883C44.8809 35.9483 44.8542 36.0816 44.8542 36.1883C44.8275 36.4016 44.8009 36.5349 44.7475 36.6949C44.6942 36.8016 44.6409 36.9083 44.5875 36.9616C44.7209 36.9616 45.2809 36.9616 45.4142 36.9616C45.3609 36.9083 45.3075 36.8016 45.2542 36.6949C45.1742 36.5349 45.1742 36.3749 45.1475 36.1883C45.1209 36.0816 45.1209 35.9483 45.1209 35.7883C45.4675 36.3216 46.1875 36.4283 46.5875 36.1083C46.9609 35.8149 47.0675 35.2016 46.7209 34.8016C46.4809 34.5083 46.0275 34.4283 45.6275 34.5883Z" fill="#3E3B48"/>
<path d="M68.1612 0.000976562C67.9745 0.37431 68.1079 0.880977 68.4279 1.12098C68.8279 1.44098 69.5479 1.36098 69.8945 0.800977C69.8945 0.960977 69.8679 1.09431 69.8679 1.20098C69.8412 1.41431 69.8145 1.54764 69.7612 1.70764C69.7079 1.81431 69.6545 1.92098 69.6012 1.97431C69.7345 1.97431 70.2945 1.97431 70.4279 1.97431C70.3745 1.92098 70.3212 1.81431 70.2679 1.70764C70.1879 1.54764 70.1879 1.38764 70.1612 1.20098C70.1345 1.12098 70.1345 0.987643 70.1079 0.800977C70.4545 1.33431 71.1745 1.44098 71.5745 1.12098C71.8945 0.880977 72.0012 0.37431 71.8412 0.000976562H68.1612Z" fill="#3E3B48"/>
<path d="M75.6278 24.5873C75.8945 24.374 76.0545 24.054 76.0011 23.7606C75.9478 23.334 75.5211 22.9873 75.0144 22.9873C74.5078 22.9873 74.0811 23.334 74.0278 23.7606C73.9745 24.0806 74.1345 24.374 74.4011 24.5873C74.0011 24.4006 73.5478 24.5073 73.2811 24.8006C72.9611 25.2006 73.0678 25.814 73.4144 26.1073C73.8144 26.4273 74.5344 26.3473 74.8811 25.7873C74.8811 25.9473 74.8545 26.0806 74.8545 26.1873C74.8278 26.4006 74.8011 26.534 74.7478 26.694C74.6944 26.8006 74.6411 26.9073 74.5878 26.9606C74.7211 26.9606 75.2811 26.9606 75.4144 26.9606C75.3611 26.9073 75.3078 26.8006 75.2545 26.694C75.1745 26.534 75.1744 26.374 75.1478 26.1873C75.1211 26.0806 75.1211 25.9473 75.1211 25.7873C75.4678 26.3206 76.1878 26.4273 76.5878 26.1073C76.9611 25.814 77.0678 25.2006 76.7211 24.8006C76.4811 24.5073 76.0278 24.4273 75.6278 24.5873Z" fill="#3E3B48"/>
<path d="M18.8814 11.3076C19.2281 11.361 19.6281 11.2543 19.8681 10.961C19.8948 11.0943 19.8414 11.281 19.7614 11.4676C19.6548 11.7076 19.4414 12.001 19.4414 12.001H20.5348C20.5348 12.001 20.3214 11.7076 20.2148 11.4676C20.1348 11.281 20.0814 11.0943 20.1081 10.961C20.3481 11.281 20.7481 11.361 21.0948 11.3076C21.4681 11.2543 21.6814 10.881 21.7348 10.5876C21.7881 10.241 21.6548 9.92098 21.4148 9.68098C21.0681 9.30764 20.8014 9.04098 20.3481 8.53431C20.1881 8.34764 20.0548 8.10764 20.0014 8.00098C19.9481 8.10764 19.8148 8.34764 19.6548 8.53431C19.2014 9.04098 18.9348 9.30764 18.5614 9.68098C18.3214 9.94764 18.1614 10.241 18.2414 10.5876C18.2948 10.881 18.5348 11.2543 18.8814 11.3076Z" fill="#3E3B48"/>
<path d="M8.88073 1.30667C9.22739 1.36 9.62739 1.25333 9.86739 0.96C9.89406 1.09333 9.84073 1.28 9.76073 1.46667C9.65406 1.70667 9.44073 2 9.44073 2H10.5341C10.5341 2 10.3207 1.70667 10.2141 1.46667C10.1341 1.28 10.0807 1.09333 10.1074 0.96C10.3474 1.28 10.7474 1.36 11.0941 1.30667C11.4674 1.25333 11.6807 0.88 11.7341 0.586667C11.7607 0.373333 11.7341 0.16 11.6274 0H8.34739C8.24073 0.186667 8.21406 0.373333 8.24073 0.586667C8.29406 0.88 8.53406 1.25333 8.88073 1.30667Z" fill="#3E3B48"/>
<path d="M16.1077 26.375C16.481 26.3217 16.6944 25.9484 16.7477 25.655C16.801 25.3084 16.6677 24.9884 16.4277 24.7484C16.081 24.375 15.7877 24.1084 15.3344 23.6017C15.1744 23.415 15.041 23.175 14.9877 23.0684C14.9344 23.175 14.801 23.415 14.641 23.6017C14.1877 24.1084 13.921 24.375 13.5477 24.7484C13.3077 25.015 13.1477 25.3084 13.2277 25.655C13.281 25.9484 13.4944 26.295 13.8677 26.375C14.2144 26.4284 14.6144 26.3217 14.8544 26.0284C14.881 26.1617 14.8277 26.3484 14.7477 26.535C14.641 26.775 14.4277 27.0684 14.4277 27.0684H15.521C15.521 27.0684 15.3077 26.775 15.201 26.535C15.121 26.3484 15.0677 26.1617 15.0944 26.0284C15.361 26.3484 15.761 26.4284 16.1077 26.375Z" fill="#3E3B48"/>
<path d="M26.1071 36.3203C26.4805 36.267 26.6938 35.8937 26.7471 35.6003C26.8005 35.2537 26.6671 34.9337 26.4271 34.6937C26.0805 34.3203 25.7871 34.0537 25.3338 33.547C25.1738 33.3603 25.0405 33.1203 24.9871 33.0137C24.9338 33.1203 24.8005 33.3603 24.6405 33.547C24.1871 34.0537 23.9205 34.3203 23.5471 34.6937C23.3071 34.9603 23.1471 35.2537 23.2271 35.6003C23.2805 35.8937 23.4938 36.2403 23.8671 36.3203C24.2138 36.3737 24.6138 36.267 24.8538 35.9737C24.8805 36.107 24.8271 36.2937 24.7471 36.4803C24.6405 36.7203 24.4271 37.0137 24.4271 37.0137H25.5205C25.5205 37.0137 25.3071 36.7203 25.2005 36.4803C25.1205 36.2937 25.0671 36.107 25.0938 35.9737C25.3605 36.267 25.7605 36.3737 26.1071 36.3203Z" fill="#3E3B48"/>
<path d="M3.89332 16.3203C4.23998 16.3737 4.63998 16.267 4.87998 15.9737C4.90665 16.107 4.85332 16.2937 4.77332 16.4803C4.66665 16.7203 4.45332 17.0137 4.45332 17.0137H5.54665C5.54665 17.0137 5.33332 16.7203 5.22665 16.4803C5.14665 16.2937 5.09332 16.107 5.11998 15.9737C5.35998 16.2937 5.75998 16.3737 6.10665 16.3203C6.47998 16.267 6.69332 15.8937 6.74665 15.6003C6.79998 15.2537 6.66665 14.9337 6.42665 14.6937C6.07998 14.3203 5.78665 14.0537 5.33332 13.547C5.17332 13.3603 5.03998 13.1203 4.98665 13.0137C4.93332 13.1203 4.79998 13.3603 4.63998 13.547C4.18665 14.0537 3.91998 14.3203 3.54665 14.6937C3.30665 14.9603 3.14665 15.2537 3.22665 15.6003C3.30665 15.8937 3.51998 16.2403 3.89332 16.3203Z" fill="#3E3B48"/>
<path d="M0.213944 31.4667C0.133944 31.28 0.0806104 31.0933 0.107277 30.96C0.347277 31.28 0.747277 31.36 1.09394 31.3067C1.46728 31.2533 1.68061 30.88 1.73394 30.5867C1.78728 30.24 1.65394 29.92 1.41394 29.68C1.06728 29.3067 0.80061 29.04 0.347277 28.5333C0.187277 28.3467 0.0539437 28.1067 0.000610352 28V32H0.533944C0.533944 32 0.32061 31.7067 0.213944 31.4667Z" fill="#3E3B48"/>
<path d="M33.8944 6.32132C34.2411 6.37465 34.6411 6.26798 34.8811 5.97465C34.9078 6.10798 34.8544 6.29465 34.7744 6.48132C34.6677 6.72132 34.4544 7.01465 34.4544 7.01465H35.5478C35.5478 7.01465 35.3344 6.72132 35.2278 6.48132C35.1478 6.29465 35.0944 6.10798 35.1211 5.97465C35.3611 6.29465 35.7611 6.37465 36.1077 6.32132C36.4811 6.26798 36.6944 5.89465 36.7478 5.60132C36.8011 5.25465 36.6678 4.93465 36.4278 4.69465C36.0811 4.32132 35.7878 4.05465 35.3344 3.54798C35.1744 3.36132 35.0411 3.12132 34.9877 3.01465C34.9344 3.12132 34.8011 3.36132 34.6411 3.54798C34.1877 4.05465 33.9211 4.32132 33.5478 4.69465C33.3078 4.96132 33.1477 5.25465 33.2277 5.60132C33.3077 5.89465 33.5211 6.24132 33.8944 6.32132Z" fill="#3E3B48"/>
<path d="M31.1207 21.3067C31.4941 21.2533 31.7074 20.88 31.7607 20.5867C31.8141 20.24 31.6808 19.92 31.4408 19.68C31.0941 19.3067 30.8008 19.04 30.3474 18.5333C30.1874 18.3467 30.0541 18.1067 30.0008 18C29.9474 18.1067 29.8141 18.3467 29.6541 18.5333C29.2007 19.04 28.9341 19.3067 28.5607 19.68C28.3207 19.9467 28.1608 20.24 28.2408 20.5867C28.2941 20.88 28.5074 21.2267 28.8808 21.3067C29.2274 21.36 29.6274 21.2533 29.8674 20.96C29.8941 21.0933 29.8407 21.28 29.7607 21.4667C29.6541 21.7067 29.4408 22 29.4408 22H30.5341C30.5341 22 30.3208 21.7067 30.2141 21.4667C30.1341 21.28 30.0808 21.0933 30.1074 20.96C30.3474 21.28 30.7741 21.36 31.1207 21.3067Z" fill="#3E3B48"/>
<path d="M20.6139 29.6C20.8805 29.3867 21.0405 29.0667 20.9872 28.7733C20.9339 28.3467 20.5072 28 20.0005 28C19.4939 28 19.0672 28.3467 19.0139 28.7733C18.9605 29.0933 19.1205 29.3867 19.3872 29.6C18.9872 29.4133 18.5339 29.52 18.2672 29.8133C17.9472 30.2133 18.0539 30.8267 18.4005 31.12C18.8005 31.44 19.5205 31.36 19.8672 30.8C19.8672 30.96 19.8405 31.0933 19.8405 31.2C19.8139 31.4133 19.7872 31.5467 19.7339 31.7067C19.6805 31.8133 19.6272 31.92 19.5739 31.9733C19.7072 31.9733 20.2672 31.9733 20.4005 31.9733C20.3472 31.92 20.2939 31.8133 20.2405 31.7067C20.1605 31.5467 20.1605 31.3867 20.1339 31.2C20.1072 31.0933 20.1072 30.96 20.1072 30.8C20.4539 31.3333 21.1739 31.44 21.5739 31.12C21.9472 30.8267 22.0539 30.2133 21.7072 29.8133C21.4672 29.52 21.0139 29.4133 20.6139 29.6Z" fill="#3E3B48"/>
<path d="M25.6271 14.5863C25.8938 14.373 26.0538 14.053 26.0004 13.7597C25.9471 13.333 25.5204 12.9863 25.0138 12.9863C24.5071 12.9863 24.0804 13.333 24.0271 13.7597C23.9738 14.0797 24.1338 14.373 24.4004 14.5863C24.0004 14.3997 23.5471 14.5063 23.2804 14.7997C22.9604 15.1997 23.0671 15.813 23.4138 16.1063C23.8138 16.4263 24.5338 16.3463 24.8804 15.7863C24.8804 15.9463 24.8538 16.0797 24.8538 16.1863C24.8271 16.3997 24.8004 16.533 24.7471 16.693C24.6938 16.7997 24.6404 16.9063 24.5871 16.9597C24.7204 16.9597 25.2804 16.9597 25.4138 16.9597C25.3604 16.9063 25.3071 16.7997 25.2538 16.693C25.1738 16.533 25.1738 16.373 25.1471 16.1863C25.1204 16.0797 25.1204 15.9463 25.1204 15.7863C25.4671 16.3197 26.1871 16.4263 26.5871 16.1063C26.9604 15.813 27.0671 15.1997 26.7204 14.7997C26.4804 14.5063 26.0271 14.4263 25.6271 14.5863Z" fill="#3E3B48"/>
<path d="M31.7344 39.8143C31.4678 39.521 31.0144 39.4143 30.6144 39.601C30.8811 39.3876 31.0411 39.0676 30.9878 38.7743C30.9344 38.3476 30.5078 38.001 30.0011 38.001C29.4944 38.001 29.0678 38.3476 29.0144 38.7743C28.9611 39.0943 29.1211 39.3876 29.3878 39.601C28.9878 39.4143 28.5344 39.521 28.2678 39.8143C28.2144 39.8676 28.1878 39.921 28.1611 40.001C27.9744 40.3743 28.1078 40.881 28.4278 41.121C28.8278 41.441 29.5478 41.361 29.8944 40.801C29.8944 40.961 29.8678 41.0943 29.8678 41.201C29.8411 41.4143 29.8144 41.5476 29.7611 41.7076C29.7078 41.8143 29.6544 41.921 29.6011 41.9743C29.7344 41.9743 30.2944 41.9743 30.4278 41.9743C30.3744 41.921 30.3211 41.8143 30.2678 41.7076C30.1878 41.5476 30.1878 41.3876 30.1611 41.201C30.1344 41.0943 30.1344 40.961 30.1344 40.801C30.4811 41.3343 31.2011 41.441 31.6011 41.121C31.9211 40.881 32.0278 40.3743 31.8678 40.001C31.8144 39.9476 31.7878 39.8676 31.7344 39.8143Z" fill="#3E3B48"/>
<path d="M10.6135 19.6C10.8802 19.3867 11.0402 19.0667 10.9868 18.7733C10.9335 18.3467 10.5068 18 10.0002 18C9.4935 18 9.06683 18.3467 9.0135 18.7733C8.96017 19.0933 9.12017 19.3867 9.38683 19.6C8.98683 19.4133 8.5335 19.52 8.26683 19.8133C7.94683 20.2133 8.0535 20.8267 8.40017 21.12C8.80017 21.44 9.52017 21.36 9.86683 20.8C9.86683 20.96 9.84017 21.0933 9.84017 21.2C9.8135 21.4133 9.78683 21.5467 9.7335 21.7067C9.68017 21.8133 9.62683 21.92 9.5735 21.9733C9.70683 21.9733 10.2668 21.9733 10.4002 21.9733C10.3468 21.92 10.2935 21.8133 10.2402 21.7067C10.1602 21.5467 10.1602 21.3867 10.1335 21.2C10.1335 21.12 10.1335 20.9867 10.1068 20.8C10.4535 21.3333 11.1735 21.44 11.5735 21.12C11.9468 20.8267 12.0535 20.2133 11.7068 19.8133C11.4668 19.52 11.0135 19.4133 10.6135 19.6Z" fill="#3E3B48"/>
<path d="M15.6273 4.58633C15.894 4.373 16.054 4.05299 16.0006 3.75966C15.9473 3.33299 15.5206 2.98633 15.014 2.98633C14.5073 2.98633 14.0806 3.33299 14.0273 3.75966C13.974 4.07966 14.134 4.373 14.4006 4.58633C14.0006 4.39966 13.5473 4.50633 13.2806 4.79966C12.9606 5.19966 13.0673 5.81299 13.414 6.10633C13.814 6.42633 14.534 6.34633 14.8806 5.78633C14.8806 5.94633 14.854 6.07966 14.854 6.18633C14.8273 6.39966 14.8006 6.53299 14.7473 6.69299C14.694 6.79966 14.6406 6.90633 14.5873 6.95966C14.7206 6.95966 15.2806 6.95966 15.414 6.95966C15.3606 6.90633 15.3073 6.79966 15.254 6.69299C15.174 6.53299 15.174 6.373 15.1473 6.18633C15.1206 6.07966 15.1206 5.94633 15.1206 5.78633C15.4673 6.31966 16.1873 6.42633 16.5873 6.10633C16.9606 5.81299 17.0673 5.19966 16.7206 4.79966C16.4806 4.50633 16.0273 4.42633 15.6273 4.58633Z" fill="#3E3B48"/>
<path d="M0.613608 9.6C0.880275 9.38667 1.04027 9.06667 0.986941 8.77333C0.933608 8.34667 0.506941 8 0.000274658 8V12C0.186941 12 0.346941 12 0.426941 12C0.373608 11.9467 0.320275 11.84 0.266941 11.7333C0.186941 11.5733 0.186941 11.4133 0.160275 11.2267C0.133608 11.12 0.133608 10.9867 0.133608 10.8267C0.480275 11.36 1.20027 11.4667 1.60027 11.1467C1.97361 10.8533 2.08027 10.24 1.73361 9.84C1.46694 9.52 1.01361 9.41333 0.613608 9.6Z" fill="#3E3B48"/>
<path d="M5.62766 34.5883C5.89433 34.3749 6.05433 34.0549 6.00099 33.7616C5.94766 33.3349 5.52099 32.9883 5.01433 32.9883C4.50766 32.9883 4.08099 33.3349 4.02766 33.7616C3.97433 34.0816 4.13433 34.3749 4.40099 34.5883C4.00099 34.4016 3.54766 34.5083 3.28099 34.8016C2.96099 35.2016 3.06766 35.8149 3.41433 36.1083C3.81433 36.4283 4.53433 36.3483 4.88099 35.7883C4.88099 35.9483 4.85433 36.0816 4.85433 36.1883C4.82766 36.4016 4.80099 36.5349 4.74766 36.6949C4.69433 36.8016 4.64099 36.9083 4.58766 36.9616C4.72099 36.9616 5.28099 36.9616 5.41433 36.9616C5.36099 36.9083 5.30766 36.8016 5.25433 36.6949C5.17433 36.5349 5.17433 36.3749 5.14766 36.1883C5.12099 36.0816 5.12099 35.9483 5.12099 35.7883C5.46766 36.3216 6.18766 36.4283 6.58766 36.1083C6.96099 35.8149 7.06766 35.2016 6.72099 34.8016C6.48099 34.5083 6.02766 34.4283 5.62766 34.5883Z" fill="#3E3B48"/>
<path d="M28.1612 0.000976562C27.9745 0.37431 28.1079 0.880977 28.4279 1.12098C28.8279 1.44098 29.5479 1.36098 29.8945 0.800977C29.8945 0.960977 29.8679 1.09431 29.8679 1.20098C29.8412 1.41431 29.8145 1.54764 29.7612 1.70764C29.7079 1.81431 29.6546 1.92098 29.6012 1.97431C29.7346 1.97431 30.2945 1.97431 30.4279 1.97431C30.3745 1.92098 30.3212 1.81431 30.2679 1.70764C30.1879 1.54764 30.1879 1.38764 30.1612 1.20098C30.1345 1.12098 30.1346 0.987643 30.1079 0.800977C30.4546 1.33431 31.1746 1.44098 31.5746 1.12098C31.8946 0.880977 32.0012 0.37431 31.8412 0.000976562H28.1612Z" fill="#3E3B48"/>
<path d="M35.6278 24.5873C35.8944 24.374 36.0544 24.054 36.0011 23.7606C35.9478 23.334 35.5211 22.9873 35.0144 22.9873C34.5078 22.9873 34.0811 23.334 34.0278 23.7606C33.9744 24.0806 34.1344 24.374 34.4011 24.5873C34.0011 24.4006 33.5478 24.5073 33.2811 24.8006C32.9611 25.2006 33.0678 25.814 33.4144 26.1073C33.8144 26.4273 34.5344 26.3473 34.8811 25.7873C34.8811 25.9473 34.8544 26.0806 34.8544 26.1873C34.8278 26.4006 34.8011 26.534 34.7478 26.694C34.6944 26.8006 34.6411 26.9073 34.5878 26.9606C34.7211 26.9606 35.2811 26.9606 35.4144 26.9606C35.3611 26.9073 35.3078 26.8006 35.2544 26.694C35.1744 26.534 35.1744 26.374 35.1478 26.1873C35.1211 26.0806 35.1211 25.9473 35.1211 25.7873C35.4678 26.3206 36.1878 26.4273 36.5878 26.1073C36.9611 25.814 37.0678 25.2006 36.7211 24.8006C36.4811 24.5073 36.0278 24.4273 35.6278 24.5873Z" fill="#3E3B48"/>
</svg>
