<svg width="18" height="18" viewBox="0 0 18 18" fill="none" xmlns="http://www.w3.org/2000/svg">
<path d="M13.3576 4.1175V4.6725L10.7026 3.135C9.69758 2.5575 8.29508 2.5575 7.29758 3.135L4.64258 4.68V4.1175C4.64258 2.43 5.56508 1.5 7.25258 1.5H10.7476C12.4351 1.5 13.3576 2.43 13.3576 4.1175Z" fill="#3B3848"/>
<path d="M13.3799 5.97719L13.2749 5.92469L12.2549 5.33969L10.1399 4.11719C9.49488 3.74219 8.50488 3.74219 7.85988 4.11719L5.74488 5.33219L4.72488 5.93219L4.58988 5.99969C3.27738 6.88469 3.18738 7.04969 3.18738 8.46719V11.8572C3.18738 13.2747 3.27738 13.4397 4.61988 14.3472L7.85988 16.2147C8.18238 16.4097 8.58738 16.4922 8.99988 16.4922C9.40488 16.4922 9.81738 16.4022 10.1399 16.2147L13.4099 14.3247C14.7299 13.4397 14.8124 13.2822 14.8124 11.8572V8.46719C14.8124 7.04969 14.7224 6.88469 13.3799 5.97719ZM11.0924 10.1247L10.6349 10.6872C10.5599 10.7697 10.5074 10.9272 10.5149 11.0397L10.5599 11.7597C10.5899 12.2022 10.2749 12.4272 9.86238 12.2697L9.19488 11.9997C9.08988 11.9622 8.91738 11.9622 8.81238 11.9997L8.14488 12.2622C7.73238 12.4272 7.41738 12.1947 7.44738 11.7522L7.49238 11.0322C7.49988 10.9197 7.44738 10.7622 7.37238 10.6797L6.90738 10.1247C6.62238 9.78719 6.74988 9.41219 7.17738 9.29969L7.87488 9.11969C7.98738 9.08969 8.11488 8.98469 8.17488 8.89469L8.56488 8.29469C8.80488 7.91969 9.18738 7.91969 9.43488 8.29469L9.82488 8.89469C9.88488 8.99219 10.0199 9.08969 10.1249 9.11969L10.8224 9.29969C11.2499 9.41219 11.3774 9.78719 11.0924 10.1247Z" fill="#3B3848"/>
</svg>
