<svg width="60" height="60" viewBox="0 0 60 60" fill="none" xmlns="http://www.w3.org/2000/svg">
<circle cx="30" cy="30" r="30" fill="url(#paint0_radial_152_7454)"/>
<path d="M43.0684 25.5194C42.5767 25.5194 42.1885 25.9076 42.1885 26.3993C42.1885 26.6322 42.2921 26.8651 42.4473 27.0462C41.7227 28.2107 39.6007 31.4714 38.6691 32.2477C38.5915 32.1701 38.4362 31.9113 38.3068 31.1349C38.3068 31.0832 38.281 31.0573 38.281 31.0055C38.2292 30.7468 38.2033 30.4621 38.1516 30.1257C38.1257 29.9187 38.0998 29.7116 38.0998 29.4787C38.0481 28.9353 38.0222 28.3401 37.9963 27.6673C37.9704 27.0462 37.9445 26.5028 37.9445 26.1146C38.3068 26.0111 38.5656 25.6488 38.5656 25.2606C38.5656 24.7689 38.1775 24.3808 37.6858 24.3808C37.1941 24.3808 36.8059 24.7689 36.8059 25.2606C36.8059 25.5453 36.9353 25.7782 37.1423 25.9593C36.6765 27.2274 35.2274 30.8762 34.1922 31.5749C34.1664 31.5749 34.1664 31.5749 34.1405 31.5749C33.4935 31.5749 32.0961 28.8835 30.4917 24.5619C31.0092 24.3808 31.3715 23.8891 31.3715 23.3198C31.3715 22.5952 30.7763 22 30.0518 22C29.3272 22 28.732 22.5952 28.732 23.3198C28.732 23.8891 29.0684 24.3549 29.586 24.536C28.0074 28.8059 26.5841 31.549 25.9372 31.549C25.8854 31.549 25.8595 31.549 25.8078 31.5231C24.7726 30.7726 23.3494 27.1497 22.8835 25.8817C23.1423 25.7264 23.2976 25.4418 23.2976 25.1312C23.2976 24.6396 22.9094 24.2514 22.4177 24.2514C21.9261 24.2514 21.5379 24.6396 21.5379 25.1312C21.5379 25.5194 21.7967 25.8558 22.159 25.9852C22.1331 26.3993 22.1072 26.9945 22.0813 27.6414C22.0296 28.3142 21.9778 28.9094 21.9261 29.4529C21.9002 29.6599 21.8743 29.8928 21.8484 30.0998C21.7967 30.4362 21.7708 30.7209 21.719 30.9797C21.719 31.0314 21.6932 31.0573 21.6932 31.1091C21.512 31.9372 21.3567 32.1701 21.2791 32.2218C20.3475 31.4713 18.2773 28.1072 17.5527 26.9168C17.7338 26.7616 17.8373 26.5028 17.8373 26.2699C17.8373 25.7782 17.4492 25.39 16.9575 25.39C16.4658 25.39 16 25.8041 16 26.2958C16 26.7874 16.3882 27.1756 16.854 27.1756C17.3198 28.3919 19.3124 38.5619 19.3124 38.5619L19.5194 38.4325C19.6747 38.3549 19.8558 38.2773 20.1405 38.1996C20.6839 38.0444 21.4603 37.915 22.4436 37.7856C24.4621 37.5527 27.1793 37.3974 30.0518 37.3974C32.9242 37.3974 35.6155 37.5268 37.6599 37.7856C38.1516 37.8373 38.5915 37.915 38.9797 37.9667C39.3678 38.0444 39.7043 38.0961 39.963 38.1738C40.0924 38.2255 40.2218 38.2514 40.3253 38.3031C40.4288 38.3549 40.5065 38.3808 40.5841 38.4325L40.7911 38.5619C40.7911 38.5619 42.6285 28.7283 43.1978 27.2791C43.6377 27.2274 44 26.8392 44 26.3993C43.9482 25.9076 43.5601 25.5194 43.0684 25.5194Z" fill="url(#paint1_linear_152_7454)"/>
<defs>
<radialGradient id="paint0_radial_152_7454" cx="0" cy="0" r="1" gradientUnits="userSpaceOnUse" gradientTransform="translate(30) rotate(90) scale(60)">
<stop stop-color="#634828"/>
<stop offset="0.4"/>
</radialGradient>
<linearGradient id="paint1_linear_152_7454" x1="30" y1="22" x2="30" y2="38.5619" gradientUnits="userSpaceOnUse">
<stop stop-color="#EFBA6B"/>
<stop offset="1" stop-color="#DC8D18"/>
</linearGradient>
</defs>
</svg>
