<svg width="50" height="50" viewBox="0 0 50 50" fill="none" xmlns="http://www.w3.org/2000/svg">
<path d="M25 50C38.8071 50 50 38.8071 50 25C50 11.1929 38.8071 0 25 0C11.1929 0 0 11.1929 0 25C0 38.8071 11.1929 50 25 50Z" fill="url(#paint0_linear_345_17071)"/>
<mask id="mask0_345_17071" style="mask-type:luminance" maskUnits="userSpaceOnUse" x="0" y="0" width="49" height="50">
<path d="M18.5925 1.3393C18.5925 1.07856 18.5925 0.817814 18.8544 0.817814C22.7824 -0.22516 26.9723 -0.22516 30.9003 0.817814C31.1621 0.817814 31.1621 1.07856 31.1621 1.3393L30.3765 4.46822C30.3765 4.72897 30.1147 4.72897 29.8528 4.72897C26.4485 3.94674 23.0442 3.94674 19.9018 4.72897C19.64 4.72897 19.3781 4.72897 19.3781 4.46822L18.5925 1.3393ZM1.3093 18.5484L4.4517 19.3306C4.71357 19.3306 4.97544 19.3306 4.97544 19.0699C5.76104 15.9409 7.33224 13.0728 9.95091 10.4653C10.2128 10.2046 10.2128 9.94384 9.95091 9.94384L7.59411 7.59715C7.33224 7.3364 7.07037 7.3364 7.07037 7.59715C4.18984 10.7261 2.0949 14.1157 1.04743 18.0269C0.785567 18.2876 1.04743 18.5484 1.3093 18.5484ZM45.0411 19.0699C45.0411 19.3306 45.3029 19.3306 45.5648 19.3306L48.7072 18.5484C48.9691 18.5484 48.9691 18.2876 48.9691 18.0269C47.9216 14.1157 45.8267 10.7261 42.9461 7.59715C42.6843 7.3364 42.4224 7.3364 42.4224 7.59715L40.0656 9.94384C39.8037 10.2046 39.8037 10.4653 40.0656 10.4653C42.4224 13.0728 43.9936 15.9409 45.0411 19.0699ZM30.3765 45.405C30.3765 45.1442 30.1147 45.1442 29.8528 45.1442C26.4485 45.9264 23.0442 45.9264 19.9018 45.1442C19.64 45.1442 19.3781 45.1442 19.3781 45.405L18.5925 48.5339C18.5925 48.7946 18.5925 49.0554 18.8544 49.0554C22.7824 50.0983 26.9723 50.0983 30.9003 49.0554C31.1621 49.0554 31.1621 48.7946 31.1621 48.5339L30.3765 45.405ZM48.7072 31.0641L45.5648 30.2818C45.3029 30.2818 45.1388 30.2752 45.0411 30.5426C44.2555 33.6715 42.4224 36.5397 40.0656 39.1471C39.8037 39.4079 39.8147 39.4495 40.0656 39.6686L42.4224 42.0153C42.6843 42.276 42.824 42.148 42.9461 42.0153C45.8267 38.8864 47.9216 35.4967 48.9691 31.5856C48.9691 31.5856 49.074 31.1926 48.7072 31.0641ZM4.97544 30.5426C4.97544 30.2818 4.71357 30.2818 4.4517 30.2818L1.3093 31.0641C1.04743 31.0641 1.04743 31.3248 1.04743 31.5856C2.0949 35.4967 4.18984 38.8864 7.07037 42.0153C7.33224 42.276 7.59411 42.276 7.59411 42.0153L9.95091 39.6686C10.2128 39.4079 10.2128 39.1471 9.95091 39.1471C7.33224 36.8004 5.76104 33.9322 4.97544 30.5426Z" fill="white"/>
</mask>
<g mask="url(#mask0_345_17071)">
<path d="M7.0702 7.59697C16.4974 -2.31129 32.2094 -2.57203 42.1604 7.07548C52.1113 16.4623 52.3732 32.3676 42.946 42.2759C33.5187 52.1841 17.5449 52.4449 7.59393 43.0581C-2.35701 33.1498 -2.61888 17.5052 7.0702 7.59697Z" fill="url(#paint1_linear_345_17071)"/>
</g>
<path d="M24.8773 44.3621C35.7242 44.3621 44.5173 35.6067 44.5173 24.8064C44.5173 14.006 35.7242 5.25061 24.8773 5.25061C14.0304 5.25061 5.2373 14.006 5.2373 24.8064C5.2373 35.6067 14.0304 44.3621 24.8773 44.3621Z" fill="url(#paint2_linear_345_17071)"/>
<path d="M43.208 24.8062C43.208 34.9752 35.0901 43.0582 24.8773 43.0582C14.6645 43.0582 6.54663 34.9752 6.54663 24.8062C6.54663 14.6372 14.6645 6.55414 24.8773 6.55414C35.0901 6.55414 43.208 14.6372 43.208 24.8062Z" fill="url(#paint3_linear_345_17071)"/>
<defs>
<linearGradient id="paint0_linear_345_17071" x1="25.0597" y1="0.054691" x2="25.0597" y2="50.2742" gradientUnits="userSpaceOnUse">
<stop stop-color="#2B2934"/>
<stop offset="1" stop-color="#141318"/>
</linearGradient>
<linearGradient id="paint1_linear_345_17071" x1="24.8947" y1="-0.00012207" x2="24.8947" y2="49.9079" gradientUnits="userSpaceOnUse">
<stop stop-color="#EDB258"/>
<stop offset="1" stop-color="#E69D2B"/>
</linearGradient>
<linearGradient id="paint2_linear_345_17071" x1="24.8773" y1="5.25061" x2="24.8773" y2="44.3621" gradientUnits="userSpaceOnUse">
<stop stop-color="#EDB258"/>
<stop offset="1" stop-color="#E69D2B"/>
</linearGradient>
<linearGradient id="paint3_linear_345_17071" x1="24.9211" y1="6.59407" x2="24.9211" y2="43.2584" gradientUnits="userSpaceOnUse">
<stop stop-color="#2B2934"/>
<stop offset="1" stop-color="#141318"/>
</linearGradient>
</defs>
</svg>
