<svg width="55" height="55" viewBox="0 0 55 55" fill="none" xmlns="http://www.w3.org/2000/svg">
<path d="M27.5 55C42.6878 55 55 42.6878 55 27.5C55 12.3122 42.6878 0 27.5 0C12.3122 0 0 12.3122 0 27.5C0 42.6878 12.3122 55 27.5 55Z" fill="url(#paint0_linear_363_3507)"/>
<mask id="mask0_363_3507" style="mask-type:luminance" maskUnits="userSpaceOnUse" x="1" y="0" width="53" height="55">
<path d="M20.4519 1.47327C20.4519 1.18646 20.4519 0.899638 20.7399 0.899638C25.0607 -0.247633 29.6696 -0.247633 33.9904 0.899638C34.2784 0.899638 34.2784 1.18646 34.2784 1.47327L33.4143 4.91509C33.4143 5.20191 33.1262 5.20191 32.8382 5.20191C29.0935 4.34145 25.3488 4.34145 21.8921 5.20191C21.6041 5.20191 21.316 5.20191 21.316 4.91509L20.4519 1.47327ZM1.44033 20.4033L4.89697 21.2637C5.18502 21.2637 5.47308 21.2637 5.47308 20.9769C6.33724 17.5351 8.06556 14.3801 10.9461 11.5119C11.2341 11.2251 11.2341 10.9383 10.9461 10.9383L8.35361 8.3569C8.06556 8.07009 7.77751 8.07009 7.77751 8.3569C4.60892 11.7987 2.30449 15.5274 1.15227 19.8296C0.864221 20.1164 1.15227 20.4033 1.44033 20.4033ZM49.5453 20.9769C49.5453 21.2637 49.8333 21.2637 50.1214 21.2637L53.578 20.4033C53.8661 20.4033 53.8661 20.1164 53.8661 19.8296C52.7139 15.5274 50.4094 11.7987 47.2408 8.3569C46.9528 8.07009 46.6647 8.07009 46.6647 8.3569L44.0723 10.9383C43.7842 11.2251 43.7842 11.5119 44.0723 11.5119C46.6647 14.3801 48.3931 17.5351 49.5453 20.9769ZM33.4143 49.9455C33.4143 49.6587 33.1262 49.6587 32.8382 49.6587C29.0935 50.5191 25.3488 50.5191 21.8921 49.6587C21.6041 49.6587 21.316 49.6587 21.316 49.9455L20.4519 53.3873C20.4519 53.6741 20.4519 53.961 20.7399 53.961C25.0607 55.1082 29.6696 55.1082 33.9904 53.961C34.2784 53.961 34.2784 53.6741 34.2784 53.3873L33.4143 49.9455ZM53.578 34.1705L50.1214 33.3101C49.8333 33.3101 49.6528 33.3028 49.5453 33.5969C48.6811 37.0387 46.6647 40.1937 44.0723 43.0619C43.7842 43.3487 43.7963 43.3945 44.0723 43.6355L46.6647 46.2169C46.9528 46.5037 47.1065 46.3628 47.2408 46.2169C50.4094 42.7751 52.7139 39.0464 53.8661 34.7442C53.8661 34.7442 53.9815 34.3119 53.578 34.1705ZM5.47308 33.5969C5.47308 33.3101 5.18502 33.3101 4.89697 33.3101L1.44033 34.1705C1.15227 34.1705 1.15227 34.4573 1.15227 34.7442C2.30449 39.0464 4.60892 42.7751 7.77751 46.2169C8.06556 46.5037 8.35361 46.5037 8.35361 46.2169L10.9461 43.6355C11.2341 43.3487 11.2341 43.0619 10.9461 43.0619C8.06556 40.4805 6.33724 37.3255 5.47308 33.5969Z" fill="white"/>
</mask>
<g mask="url(#mask0_363_3507)">
<path d="M7.77739 8.35668C18.1473 -2.54241 35.4305 -2.82922 46.3766 7.78304C57.3226 18.1085 57.6106 35.6044 47.2407 46.5035C36.8708 57.4026 19.2995 57.6894 8.35349 47.3639C-2.59254 36.4648 -2.88059 19.2558 7.77739 8.35668Z" fill="url(#paint1_linear_363_3507)"/>
</g>
<path d="M27.365 48.7983C39.2966 48.7983 48.969 39.1674 48.969 27.287C48.969 15.4066 39.2966 5.77563 27.365 5.77563C15.4334 5.77563 5.76099 15.4066 5.76099 27.287C5.76099 39.1674 15.4334 48.7983 27.365 48.7983Z" fill="url(#paint2_linear_363_3507)"/>
<path d="M47.5287 27.2869C47.5287 38.4728 38.599 47.3641 27.3649 47.3641C16.1308 47.3641 7.20117 38.4728 7.20117 27.2869C7.20117 16.101 16.1308 7.20959 27.3649 7.20959C38.599 7.20959 47.5287 16.101 47.5287 27.2869Z" fill="url(#paint3_linear_363_3507)"/>
<defs>
<linearGradient id="paint0_linear_363_3507" x1="27.5657" y1="0.0601601" x2="27.5657" y2="55.3016" gradientUnits="userSpaceOnUse">
<stop stop-color="#896127"/>
<stop offset="1" stop-color="#573914"/>
</linearGradient>
<linearGradient id="paint1_linear_363_3507" x1="27.3843" y1="-0.00012207" x2="27.3843" y2="54.8987" gradientUnits="userSpaceOnUse">
<stop stop-color="#EDB258"/>
<stop offset="1" stop-color="#E69D2B"/>
</linearGradient>
<linearGradient id="paint2_linear_363_3507" x1="27.365" y1="5.77563" x2="27.365" y2="48.7983" gradientUnits="userSpaceOnUse">
<stop stop-color="#EDB258"/>
<stop offset="1" stop-color="#E69D2B"/>
</linearGradient>
<linearGradient id="paint3_linear_363_3507" x1="27.4131" y1="7.25352" x2="27.4131" y2="47.5843" gradientUnits="userSpaceOnUse">
<stop stop-color="#2B2934"/>
<stop offset="1" stop-color="#141318"/>
</linearGradient>
</defs>
</svg>
