<svg width="183" height="129" viewBox="0 0 183 129" fill="none" xmlns="http://www.w3.org/2000/svg">
<path d="M56.1105 13.8175C57.444 13.1874 59.3601 13.9399 60.4669 15.8762L60.5715 16.0682L98.9522 94.4457C99.4476 95.4604 99.566 96.5268 99.3785 97.4144C99.1908 98.302 98.7071 98.9812 98.0196 99.308L98.0149 99.3104L45.9206 124.812C44.587 125.441 42.6718 124.69 41.5652 122.754L41.4608 122.563L3.08101 44.1855C2.58544 43.1707 2.46624 42.1046 2.65375 41.2169C2.84134 40.3291 3.32507 39.6501 4.01262 39.3233L4.01732 39.3209L56.1105 13.8175Z" fill="url(#paint0_linear_360_17386)" stroke="url(#paint1_linear_360_17386)"/>
<path d="M46.6557 59.5706L58.6175 65.2186L58.978 65.3888L58.8916 65.7784L56.0263 78.7205L55.8903 79.3329L55.3235 79.0646L43.4142 73.4122L43.0557 73.2418L43.1403 72.8543L45.953 59.9166L46.087 59.3025L46.6557 59.5706Z" fill="url(#paint2_linear_360_17386)" stroke="url(#paint3_linear_360_17386)"/>
<path d="M94.2463 1.96836C95.7484 1.59878 97.5374 2.85335 98.0668 5.07997L98.069 5.08551L119.297 89.7678C119.556 90.8635 119.459 91.9254 119.103 92.75C118.748 93.5734 118.147 94.1378 117.393 94.3236L117.391 94.324L61.0766 108.422C59.5748 108.79 57.7864 107.537 57.2572 105.311L57.2561 105.305L36.0286 20.6287L36.0296 20.6285C35.7686 19.5308 35.8642 18.4667 36.2208 17.6408C36.5764 16.8172 37.1768 16.253 37.9307 16.0672L37.9326 16.0668L94.2475 1.96912L94.2463 1.96836Z" fill="url(#paint4_linear_360_17386)" stroke="url(#paint5_linear_360_17386)"/>
<path d="M88.0562 54.8634C88.1147 55.1475 88.1726 55.4245 88.1857 55.768L88.1845 55.7672C88.3111 58.0269 86.7928 60.1118 84.529 60.6889L84.5271 60.6893C82.792 61.1211 81.0248 60.5605 79.8536 59.3616C80.0446 59.8353 80.2487 60.3272 80.4638 60.8043C80.7813 61.5086 81.1123 62.1727 81.4335 62.7044C81.7671 63.2566 82.0497 63.5963 82.2506 63.7286L83.2078 64.358L82.0945 64.6312L78.2964 65.564L77.1755 65.8388L77.742 64.8327C77.8636 64.6165 77.9568 64.184 77.993 63.5436C78.0279 62.926 78.0071 62.1885 77.9536 61.421C77.9154 60.8726 77.857 60.3154 77.7968 59.7833C77.3442 61.4071 76.0671 62.7555 74.3179 63.1909L74.096 63.2366C71.8955 63.6439 69.7212 62.5218 68.7752 60.5666C68.6083 60.2993 68.4913 59.9868 68.4249 59.6746C67.7815 57.0872 69.3416 54.4285 71.9393 53.7819L71.946 53.7806C72.308 53.696 72.6435 53.6575 72.95 53.6496C72.4576 53.1012 71.9919 52.346 71.7396 51.3115L71.6855 51.0684C71.1943 48.5594 72.738 46.0441 75.2547 45.4177C77.8403 44.7744 80.4973 46.3329 81.1463 48.9273L81.2105 49.1953C81.411 50.1294 81.3473 50.9341 81.1817 51.5922C81.4686 51.4503 81.7997 51.323 82.1807 51.2239L82.1864 51.2227C84.779 50.5777 87.4409 52.146 88.0542 54.8539L88.0562 54.8634Z" fill="url(#paint6_linear_360_17386)" stroke="url(#paint7_linear_360_17386)"/>
<path d="M81.5704 7.45288C81.8476 5.16713 83.5394 3.7069 85.0197 3.88452V3.88354L142.571 11.3005L142.578 11.3015C143.353 11.391 144.025 11.8842 144.484 12.6697C144.943 13.4569 145.168 14.5138 145.031 15.6394L133.832 102.192V102.196C133.555 104.48 131.865 105.94 130.386 105.765H130.387L72.8312 98.3484L72.8243 98.3474L72.6808 98.3259C71.9668 98.1953 71.3479 97.7161 70.9181 96.9792C70.4589 96.192 70.2338 95.1343 70.3702 94.0085L81.5695 7.45679L81.5704 7.45288Z" fill="url(#paint8_linear_360_17386)" stroke="url(#paint9_linear_360_17386)"/>
<path d="M104.283 45.5054L104.529 45.5239L104.533 45.5249C106.316 45.7187 108.084 46.6878 108.783 48.2192C109.161 47.7629 109.651 47.4048 110.198 47.1479C111.127 46.7108 112.242 46.5507 113.328 46.6802L113.545 46.7104L113.549 46.7114C116.119 47.1311 118.208 49.3989 117.749 52.7036C117.567 54.2405 116.811 55.4732 115.78 56.5415C114.757 57.6008 113.438 58.5268 112.095 59.4458L112.091 59.4478C109.369 61.2785 107.823 62.5907 107.215 63.105L106.8 63.4556L106.485 63.0142C106.013 62.3538 104.89 60.7156 102.685 58.229L102.681 58.2251C101.62 56.9994 100.581 55.768 99.8607 54.481C99.1344 53.1836 98.7121 51.7959 98.9202 50.2603H98.9212C99.3231 47.0639 101.741 45.369 104.283 45.5054Z" fill="url(#paint10_linear_360_17386)" stroke="url(#paint11_linear_360_17386)"/>
<path d="M120.859 20.3108C121.622 18.0906 123.48 17.0309 124.981 17.511L179.932 36.1995L179.941 36.2024C180.686 36.4408 181.254 37.0602 181.548 37.9182C181.843 38.7775 181.848 39.848 181.476 40.8987L181.474 40.9045L153.289 123.531C152.525 125.751 150.669 126.811 149.168 126.33L94.2911 107.643L94.2882 107.642L94.1564 107.593C93.5072 107.327 92.9869 106.73 92.7013 105.919C92.4165 105.111 92.3796 104.121 92.6818 103.139L92.7491 102.937L120.859 20.3118L120.859 20.3108Z" fill="url(#paint12_linear_360_17386)" stroke="url(#paint13_linear_360_17386)"/>
<path d="M140.385 62.9055V62.9065C140.385 62.9078 140.385 62.9108 140.386 62.9153C140.387 62.925 140.388 62.9424 140.391 62.967C140.398 63.0163 140.411 63.0952 140.432 63.2043C140.475 63.4228 140.554 63.7624 140.699 64.2258C140.989 65.1526 141.539 66.5758 142.582 68.5188H142.583C143.416 70.067 144.209 71.5255 144.676 72.9319C145.147 74.3529 145.302 75.7643 144.826 77.218V77.2209C143.968 79.796 141.182 81.1262 138.624 80.2737C137.509 79.902 136.495 79.2073 135.834 78.303C135.772 78.7368 135.721 79.1768 135.698 79.5989C135.672 80.0779 135.681 80.5185 135.736 80.8918C135.793 81.2708 135.892 81.5415 136.017 81.7141L136.946 82.9915L135.451 82.4817L131.513 81.137L130.055 80.6389L131.528 80.1858C131.735 80.1223 131.98 79.9649 132.257 79.6975C132.529 79.434 132.805 79.0897 133.076 78.6946C133.321 78.3382 133.553 77.9493 133.771 77.5588C132.682 77.8836 131.449 77.8178 130.317 77.4407C127.742 76.5823 126.412 73.7966 127.264 71.2385C127.742 69.8064 128.708 68.779 129.941 67.9358C131.163 67.1007 132.684 66.4222 134.306 65.7063L134.308 65.7053C136.321 64.8291 137.637 64.0403 138.441 63.4788C138.844 63.198 139.119 62.9736 139.29 62.8235C139.375 62.7485 139.435 62.6924 139.471 62.6565C139.49 62.6385 139.502 62.6249 139.509 62.6174L139.515 62.6106L140.295 61.7444L140.385 62.9055Z" fill="url(#paint14_linear_360_17386)" stroke="url(#paint15_linear_360_17386)"/>
<defs>
<linearGradient id="paint0_linear_360_17386" x1="7.48582" y1="108.074" x2="94.2264" y2="27.6634" gradientUnits="userSpaceOnUse">
<stop offset="0.0552677" stop-color="#141319"/>
<stop offset="0.3235" stop-color="#18171D"/>
<stop offset="0.7271" stop-color="#24242E"/>
<stop offset="1" stop-color="#2C2C38"/>
</linearGradient>
<linearGradient id="paint1_linear_360_17386" x1="46.3062" y1="14.0065" x2="55.7263" y2="124.624" gradientUnits="userSpaceOnUse">
<stop stop-color="#4C4C58"/>
<stop offset="1" stop-color="#15141A" stop-opacity="0"/>
</linearGradient>
<linearGradient id="paint2_linear_360_17386" x1="50.1977" y1="59.7032" x2="51.8348" y2="78.9279" gradientUnits="userSpaceOnUse">
<stop stop-color="#EDB258"/>
<stop offset="1" stop-color="#E69D2B"/>
</linearGradient>
<linearGradient id="paint3_linear_360_17386" x1="50.1977" y1="59.7032" x2="51.8348" y2="78.9279" gradientUnits="userSpaceOnUse">
<stop stop-color="#F5D38C"/>
<stop offset="1" stop-color="#CF7A1D"/>
</linearGradient>
<linearGradient id="paint4_linear_360_17386" x1="50.1809" y1="92.5174" x2="116.325" y2="27.2702" gradientUnits="userSpaceOnUse">
<stop offset="0.0552677" stop-color="#141319"/>
<stop offset="0.3235" stop-color="#18171D"/>
<stop offset="0.7271" stop-color="#24242E"/>
<stop offset="1" stop-color="#2C2C38"/>
</linearGradient>
<linearGradient id="paint5_linear_360_17386" x1="67.7193" y1="6.92057" x2="87.6053" y2="103.47" gradientUnits="userSpaceOnUse">
<stop stop-color="#4C4C58"/>
<stop offset="1" stop-color="#15141A" stop-opacity="0"/>
</linearGradient>
<linearGradient id="paint6_linear_360_17386" x1="75.875" y1="45.7965" x2="79.7785" y2="64.7482" gradientUnits="userSpaceOnUse">
<stop stop-color="#EDB258"/>
<stop offset="1" stop-color="#E69D2B"/>
</linearGradient>
<linearGradient id="paint7_linear_360_17386" x1="75.875" y1="45.7965" x2="79.7785" y2="64.7482" gradientUnits="userSpaceOnUse">
<stop stop-color="#F5D38C"/>
<stop offset="1" stop-color="#CF7A1D"/>
</linearGradient>
<linearGradient id="paint8_linear_360_17386" x1="69.6777" y1="87.1993" x2="152.814" y2="30.1762" gradientUnits="userSpaceOnUse">
<stop offset="0.0552677" stop-color="#141319"/>
<stop offset="0.3235" stop-color="#18171D"/>
<stop offset="0.7271" stop-color="#24242E"/>
<stop offset="1" stop-color="#2C2C38"/>
</linearGradient>
<linearGradient id="paint9_linear_360_17386" x1="107.701" y1="3.3689" x2="107.701" y2="106.28" gradientUnits="userSpaceOnUse">
<stop stop-color="#4C4C58"/>
<stop offset="1" stop-color="#15141A" stop-opacity="0"/>
</linearGradient>
<linearGradient id="paint10_linear_360_17386" x1="108.341" y1="45.9976" x2="108.341" y2="62.7237" gradientUnits="userSpaceOnUse">
<stop stop-color="#EDB258"/>
<stop offset="1" stop-color="#E69D2B"/>
</linearGradient>
<linearGradient id="paint11_linear_360_17386" x1="108.341" y1="45.9976" x2="108.341" y2="62.7237" gradientUnits="userSpaceOnUse">
<stop stop-color="#F5D38C"/>
<stop offset="1" stop-color="#CF7A1D"/>
</linearGradient>
<linearGradient id="paint12_linear_360_17386" x1="91.7878" y1="106.542" x2="183.756" y2="36.221" gradientUnits="userSpaceOnUse">
<stop offset="0.0552677" stop-color="#141319"/>
<stop offset="0.3235" stop-color="#18171D"/>
<stop offset="0.7271" stop-color="#24242E"/>
<stop offset="1" stop-color="#2C2C38"/>
</linearGradient>
<linearGradient id="paint13_linear_360_17386" x1="137.117" y1="16.8948" x2="137.117" y2="126.947" gradientUnits="userSpaceOnUse">
<stop stop-color="#4C4C58"/>
<stop offset="1" stop-color="#15141A" stop-opacity="0"/>
</linearGradient>
<linearGradient id="paint14_linear_360_17386" x1="136.061" y1="62.9465" x2="136.061" y2="82.0082" gradientUnits="userSpaceOnUse">
<stop stop-color="#EDB258"/>
<stop offset="1" stop-color="#E69D2B"/>
</linearGradient>
<linearGradient id="paint15_linear_360_17386" x1="136.061" y1="62.9465" x2="136.061" y2="82.0082" gradientUnits="userSpaceOnUse">
<stop stop-color="#F5D38C"/>
<stop offset="1" stop-color="#CF7A1D"/>
</linearGradient>
</defs>
</svg>
