<svg width="24" height="24" viewBox="0 0 24 24" fill="none" xmlns="http://www.w3.org/2000/svg">
<path d="M17.8101 5.48988V6.22988L14.2701 4.17988C12.9301 3.40988 11.0601 3.40988 9.73006 4.17988L6.19006 6.23988V5.48988C6.19006 3.23988 7.42006 1.99988 9.67006 1.99988H14.3301C16.5801 1.99988 17.8101 3.23988 17.8101 5.48988Z" fill="url(#paint0_linear_158_10470)"/>
<path d="M17.8399 7.96987L17.6999 7.89987L16.3399 7.11987L13.5199 5.48987C12.6599 4.98987 11.3399 4.98987 10.4799 5.48987L7.65988 7.10987L6.29988 7.90987L6.11988 7.99987C4.36988 9.17987 4.24988 9.39987 4.24988 11.2899V15.8099C4.24988 17.6999 4.36988 17.9199 6.15988 19.1299L10.4799 21.6199C10.9099 21.8799 11.4499 21.9899 11.9999 21.9899C12.5399 21.9899 13.0899 21.8699 13.5199 21.6199L17.8799 19.0999C19.6399 17.9199 19.7499 17.7099 19.7499 15.8099V11.2899C19.7499 9.39987 19.6299 9.17987 17.8399 7.96987ZM14.7899 13.4999L14.1799 14.2499C14.0799 14.3599 14.0099 14.5699 14.0199 14.7199L14.0799 15.6799C14.1199 16.2699 13.6999 16.5699 13.1499 16.3599L12.2599 15.9999C12.1199 15.9499 11.8899 15.9499 11.7499 15.9999L10.8599 16.3499C10.3099 16.5699 9.88988 16.2599 9.92988 15.6699L9.98988 14.7099C9.99988 14.5599 9.92988 14.3499 9.82988 14.2399L9.20988 13.4999C8.82988 13.0499 8.99988 12.5499 9.56988 12.3999L10.4999 12.1599C10.6499 12.1199 10.8199 11.9799 10.8999 11.8599L11.4199 11.0599C11.7399 10.5599 12.2499 10.5599 12.5799 11.0599L13.0999 11.8599C13.1799 11.9899 13.3599 12.1199 13.4999 12.1599L14.4299 12.3999C14.9999 12.5499 15.1699 13.0499 14.7899 13.4999Z" fill="url(#paint1_linear_158_10470)"/>
<defs>
<linearGradient id="paint0_linear_158_10470" x1="12.0001" y1="1.99988" x2="12.0001" y2="6.23988" gradientUnits="userSpaceOnUse">
<stop stop-color="#D4D3DB"/>
<stop offset="1" stop-color="#6B6A7A"/>
</linearGradient>
<linearGradient id="paint1_linear_158_10470" x1="11.9999" y1="5.11487" x2="11.9999" y2="21.9899" gradientUnits="userSpaceOnUse">
<stop stop-color="#D4D3DB"/>
<stop offset="1" stop-color="#6B6A7A"/>
</linearGradient>
</defs>
</svg>
