<svg width="24" height="24" viewBox="0 0 24 24" fill="none" xmlns="http://www.w3.org/2000/svg">
<path d="M11.9999 2.25781C12.5282 2.25781 13.0442 2.33324 13.4227 2.47461L18.412 4.34473H18.413C18.9303 4.53833 19.4146 4.94803 19.7733 5.46191C20.0873 5.91182 20.2938 6.42582 20.3466 6.91602L20.3602 7.12402V14.5508C20.3601 15.091 20.1794 15.7344 19.8778 16.334C19.6139 16.8586 19.2669 17.3303 18.8925 17.6582L18.7303 17.79L14.4305 21H14.4296C13.7755 21.4917 12.8984 21.7451 12.0096 21.7451C11.1211 21.745 10.2446 21.4916 9.5907 21H9.58972L5.28992 17.79C4.85425 17.4644 4.44413 16.9337 4.14246 16.334C3.84084 15.7343 3.66014 15.091 3.66003 14.5508V7.12012C3.66008 6.57139 3.87332 5.9755 4.22937 5.46191C4.58552 4.94827 5.07007 4.5383 5.58777 4.34473L10.578 2.47461L10.577 2.47363C10.9555 2.33228 11.4716 2.25783 11.9999 2.25781ZM12.0048 12.5605C11.276 12.5606 10.5373 12.72 9.92566 13.0498L9.67175 13.2021C9.04807 13.6179 8.6698 14.2296 8.6698 14.8906V14.8945C8.68149 15.5608 9.04628 16.1493 9.66882 16.5654V16.5664C10.3199 17.0113 11.1726 17.2207 11.9999 17.2207C12.8308 17.2207 13.6702 17 14.327 16.5693L14.329 16.5684C14.9531 16.1522 15.328 15.5422 15.3397 14.8848V14.8799C15.3396 14.2068 14.96 13.6163 14.3387 13.2021H14.3378C13.6834 12.7695 12.8376 12.5605 12.0048 12.5605ZM11.9296 6.78027C10.7033 6.78051 9.68379 7.72309 9.57019 8.92773L9.56042 9.16992C9.56042 10.4677 10.5699 11.5052 11.9012 11.5498V11.5508H12.0096L12.0184 11.5498C13.3019 11.5052 14.3202 10.4657 14.3202 9.16992C14.32 7.85203 13.2475 6.78027 11.9296 6.78027Z" fill="url(#paint0_linear_326_17082)" stroke="url(#paint1_linear_326_17082)" stroke-width="0.5"/>
<defs>
<linearGradient id="paint0_linear_326_17082" x1="12.01" y1="2.00781" x2="12.01" y2="21.9953" gradientUnits="userSpaceOnUse">
<stop stop-color="#D4D3DB"/>
<stop offset="1" stop-color="#6B6A7A"/>
</linearGradient>
<linearGradient id="paint1_linear_326_17082" x1="12.01" y1="2.00781" x2="12.01" y2="21.9953" gradientUnits="userSpaceOnUse">
<stop stop-color="white"/>
<stop offset="1" stop-color="#666666" stop-opacity="0"/>
</linearGradient>
</defs>
</svg>
