<svg width="62" height="62" viewBox="0 0 62 62" fill="none" xmlns="http://www.w3.org/2000/svg">
<g filter="url(#filter0_i_316_16049)">
<circle cx="31" cy="31" r="31" fill="url(#paint0_radial_316_16049)"/>
</g>
<circle cx="31" cy="31" r="30.5" stroke="url(#paint1_linear_316_16049)"/>
<path d="M9.5 53C9.5 48.5817 24.9782 45 32.1154 45C39.2526 45 51.5 48.5817 51.5 53C51.5 57.4183 37.5606 62 30.4233 62C23.2861 62 9.5 57.4183 9.5 53Z" fill="url(#paint2_linear_316_16049)" fill-opacity="0.25"/>
<path d="M59.5 26.8216C59.5 40.5301 52.7856 22.6846 37.0455 22.6846C21.3053 22.6846 2.5 40.5301 2.5 26.8216C2.5 13.113 15.2599 2 31 2C46.7401 2 59.5 13.113 59.5 26.8216Z" fill="url(#paint3_linear_316_16049)" fill-opacity="0.25"/>
<g filter="url(#filter1_i_316_16049)">
<path d="M42.9545 27.7468L31.3182 16L19.6818 27.7468C18.2273 29.2152 17.5 31.0506 17.5 32.8861C17.5 36.9241 20.7727 40.5949 25.1364 40.5949C26.9545 40.5949 28.7727 39.8608 30.2273 38.7595V39.4937C30.2273 41.6962 28.4091 43.5316 26.2273 43.8987C26.2273 43.8987 25.8636 43.8987 25.8636 44.2658V44.6329C25.8636 45 25.8636 45 26.2273 45H37.1364C37.5 45 37.5 44.6329 37.5 44.6329V44.2658C36.7727 43.8987 36.7727 43.8987 36.7727 43.8987C34.5909 43.8987 32.7727 41.6962 32.7727 39.4937V38.7595C34.2273 39.8608 35.6818 40.5949 37.8636 40.5949C41.8636 40.5949 45.5 37.2911 45.5 32.8861C45.1364 31.0506 44.4091 29.2152 42.9545 27.7468Z" fill="#3E301A"/>
</g>
<defs>
<filter id="filter0_i_316_16049" x="0" y="0" width="63" height="66" filterUnits="userSpaceOnUse" color-interpolation-filters="sRGB">
<feFlood flood-opacity="0" result="BackgroundImageFix"/>
<feBlend mode="normal" in="SourceGraphic" in2="BackgroundImageFix" result="shape"/>
<feColorMatrix in="SourceAlpha" type="matrix" values="0 0 0 0 0 0 0 0 0 0 0 0 0 0 0 0 0 0 127 0" result="hardAlpha"/>
<feOffset dx="1" dy="4"/>
<feGaussianBlur stdDeviation="2"/>
<feComposite in2="hardAlpha" operator="arithmetic" k2="-1" k3="1"/>
<feColorMatrix type="matrix" values="0 0 0 0 0.376471 0 0 0 0 0.207843 0 0 0 0 0.0156863 0 0 0 0.2 0"/>
<feBlend mode="normal" in2="shape" result="effect1_innerShadow_316_16049"/>
</filter>
<filter id="filter1_i_316_16049" x="17.5" y="16" width="28" height="29" filterUnits="userSpaceOnUse" color-interpolation-filters="sRGB">
<feFlood flood-opacity="0" result="BackgroundImageFix"/>
<feBlend mode="normal" in="SourceGraphic" in2="BackgroundImageFix" result="shape"/>
<feColorMatrix in="SourceAlpha" type="matrix" values="0 0 0 0 0 0 0 0 0 0 0 0 0 0 0 0 0 0 127 0" result="hardAlpha"/>
<feOffset/>
<feGaussianBlur stdDeviation="5"/>
<feComposite in2="hardAlpha" operator="arithmetic" k2="-1" k3="1"/>
<feColorMatrix type="matrix" values="0 0 0 0 0.816519 0 0 0 0 0.692966 0 0 0 0 0.504267 0 0 0 0.57 0"/>
<feBlend mode="normal" in2="shape" result="effect1_innerShadow_316_16049"/>
</filter>
<radialGradient id="paint0_radial_316_16049" cx="0" cy="0" r="1" gradientUnits="userSpaceOnUse" gradientTransform="translate(31.5 1.5) rotate(90) scale(59)">
<stop stop-color="#FFC368"/>
<stop offset="1" stop-color="#AC6D0B"/>
</radialGradient>
<linearGradient id="paint1_linear_316_16049" x1="31" y1="0" x2="31" y2="62" gradientUnits="userSpaceOnUse">
<stop stop-color="#FFDAA4"/>
<stop offset="1" stop-color="#B37412"/>
</linearGradient>
<linearGradient id="paint2_linear_316_16049" x1="14.4233" y1="51.5" x2="45.7088" y2="43.6614" gradientUnits="userSpaceOnUse">
<stop stop-color="#FFDAA4"/>
<stop offset="1" stop-color="#E69D2B" stop-opacity="0"/>
</linearGradient>
<linearGradient id="paint3_linear_316_16049" x1="16.0714" y1="2" x2="49.8508" y2="16.4095" gradientUnits="userSpaceOnUse">
<stop stop-color="#E69D2B" stop-opacity="0"/>
<stop offset="1" stop-color="#FFDAA4"/>
</linearGradient>
</defs>
</svg>
